<?xml version="1.0" encoding="UTF-8" standalone="no"?>
<!-- Generator: Adobe Illustrator 23.0.0, SVG Export Plug-In . SVG Version: 6.00 Build 0)  -->

<svg
   xmlns:dc="http://purl.org/dc/elements/1.1/"
   xmlns:cc="http://creativecommons.org/ns#"
   xmlns:rdf="http://www.w3.org/1999/02/22-rdf-syntax-ns#"
   xmlns:svg="http://www.w3.org/2000/svg"
   xmlns="http://www.w3.org/2000/svg"
   xmlns:sodipodi="http://sodipodi.sourceforge.net/DTD/sodipodi-0.dtd"
   xmlns:inkscape="http://www.inkscape.org/namespaces/inkscape"
   version="1.1"
   x="0px"
   y="0px"
   viewBox="0 0 650 650"
   style="enable-background:new 0 0 650 650;"
   xml:space="preserve"
   id="svg406"
   sodipodi:docname="board.svg"
   inkscape:version="0.92.1 r15371"><metadata
     id="metadata412"><rdf:RDF><cc:Work
         rdf:about=""><dc:format>image/svg+xml</dc:format><dc:type
           rdf:resource="http://purl.org/dc/dcmitype/StillImage" /></cc:Work></rdf:RDF></metadata><defs
     id="defs410" /><sodipodi:namedview
     pagecolor="#ffffff"
     bordercolor="#666666"
     borderopacity="1"
     objecttolerance="10"
     gridtolerance="10"
     guidetolerance="10"
     inkscape:pageopacity="0"
     inkscape:pageshadow="2"
     inkscape:window-width="1920"
     inkscape:window-height="997"
     id="namedview408"
     showgrid="false"
     inkscape:zoom="1.0269366"
     inkscape:cx="184.18014"
     inkscape:cy="341.78919"
     inkscape:window-x="0"
     inkscape:window-y="0"
     inkscape:window-maximized="1"
     inkscape:current-layer="g385" /><style
     type="text/css"
     id="style2">
	.st0{fill:url(#SVGID_1_);}
	.st1{fill:url(#SVGID_2_);}
	.st2{fill:#FFFFFF;}
	.st3{fill:#E9ECF5;}
	.st4{fill:none;stroke:url(#SVGID_3_);stroke-width:9.9086;stroke-linecap:round;stroke-miterlimit:10;}
	.st5{fill:none;stroke:url(#SVGID_4_);stroke-width:9.9086;stroke-linecap:round;stroke-miterlimit:10;}
	.st6{fill:url(#SVGID_5_);}
	.st7{fill:url(#SVGID_6_);}
	.st8{fill:url(#SVGID_7_);}
	.st9{fill:url(#SVGID_8_);}
	.st10{fill:url(#SVGID_9_);}
	.st11{fill:url(#SVGID_10_);}
	.st12{fill:#201F4F;}
	.st13{fill:#3BB273;}
	.st14{fill:url(#SVGID_11_);}
	.st15{fill:url(#SVGID_12_);}
	.st16{fill:url(#SVGID_13_);}
	.st17{fill:url(#SVGID_14_);}
	.st18{fill:url(#SVGID_15_);}
	.st19{fill:url(#SVGID_16_);}
	.st20{fill:url(#SVGID_17_);}
	.st21{fill:url(#SVGID_18_);}
	.st22{fill:url(#SVGID_19_);}
	.st23{fill:none;stroke:url(#SVGID_20_);stroke-width:5.3733;stroke-linecap:round;stroke-miterlimit:10;}
	.st24{fill:none;stroke:url(#SVGID_21_);stroke-width:5.3733;stroke-linecap:round;stroke-miterlimit:10;}
	.st25{fill:none;stroke:url(#SVGID_22_);stroke-width:5.3733;stroke-linecap:round;stroke-miterlimit:10;}
	.st26{fill:url(#SVGID_23_);}
	.st27{fill:url(#SVGID_24_);}
	.st28{fill:url(#SVGID_25_);}
	.st29{fill:url(#SVGID_26_);}
	.st30{fill:url(#SVGID_27_);}
	.st31{fill:url(#SVGID_28_);}
	.st32{fill:url(#SVGID_29_);}
	.st33{fill:none;stroke:url(#SVGID_30_);stroke-width:5.3733;stroke-linecap:round;stroke-miterlimit:10;}
	.st34{fill:none;stroke:url(#SVGID_31_);stroke-width:5.3733;stroke-linecap:round;stroke-miterlimit:10;}
	.st35{fill:none;stroke:url(#SVGID_32_);stroke-width:5.3733;stroke-linecap:round;stroke-miterlimit:10;}
	.st36{fill:none;stroke:url(#SVGID_33_);stroke-width:5.3733;stroke-linecap:round;stroke-miterlimit:10;}
	.st37{fill:none;stroke:url(#SVGID_34_);stroke-width:5.3733;stroke-linecap:round;stroke-miterlimit:10;}
	.st38{fill:none;stroke:url(#SVGID_35_);stroke-width:5.3733;stroke-linecap:round;stroke-miterlimit:10;}
	.st39{fill:none;stroke:url(#SVGID_36_);stroke-width:5.3733;stroke-linecap:round;stroke-miterlimit:10;}
	.st40{fill:none;stroke:url(#SVGID_37_);stroke-width:5.3733;stroke-linecap:round;stroke-miterlimit:10;}
	.st41{fill:none;stroke:url(#SVGID_38_);stroke-width:5.3733;stroke-linecap:round;stroke-miterlimit:10;}
	.st42{fill:none;stroke:url(#SVGID_39_);stroke-width:5.3733;stroke-linecap:round;stroke-miterlimit:10;}
	.st43{fill:none;stroke:url(#SVGID_40_);stroke-width:5.3733;stroke-linecap:round;stroke-miterlimit:10;}
	.st44{fill:none;stroke:url(#SVGID_41_);stroke-width:5.3733;stroke-linecap:round;stroke-miterlimit:10;}
	.st45{fill:none;stroke:url(#SVGID_42_);stroke-width:5.3733;stroke-linecap:round;stroke-miterlimit:10;}
	.st46{fill:none;stroke:url(#SVGID_43_);stroke-width:5.3733;stroke-linecap:round;stroke-miterlimit:10;}
	.st47{fill:none;stroke:url(#SVGID_44_);stroke-width:5.3733;stroke-linecap:round;stroke-miterlimit:10;}
</style><g
     id="_x33_2" /><g
     id="_x33_1" /><g
     id="_x33_0" /><g
     id="_x32_9" /><g
     id="_x32_8" /><g
     id="_x32_7" /><g
     id="_x32_6" /><g
     id="_x32_5" /><g
     id="_x32_4" /><g
     id="_x32_3" /><g
     id="_x32_2" /><g
     id="_x32_1" /><g
     id="_x32_0" /><g
     id="_x31_9"><g
       id="g385"><linearGradient
         id="SVGID_1_"
         gradientUnits="userSpaceOnUse"
         x1="77.2085"
         y1="342.1753"
         x2="624.2146"
         y2="342.1753"><stop
           offset="0"
           style="stop-color:#F0F2F5"
           id="stop17" /><stop
           offset="0.9901"
           style="stop-color:#F5F7F8"
           id="stop19" /></linearGradient><path
         class="st0"
         d="M605.53,353.08c-48.04-98.2-185.42-242.03-363.94-242.4C55.3,110.29,37.28,295.05,137.69,346.4    s-46.4,115.38,58.55,179.69c106.23,65.1,333.24,58.99,389.12,8.35S626.29,395.5,605.53,353.08z"
         id="path22" /><g
         id="g33"><linearGradient
           id="SVGID_2_"
           gradientUnits="userSpaceOnUse"
           x1="52.0478"
           y1="236.2608"
           x2="429.9301"
           y2="236.2608"><stop
             offset="9.900990e-03"
             style="stop-color:#9D9D9C"
             id="stop24" /><stop
             offset="1"
             style="stop-color:#DADADA"
             id="stop26" /></linearGradient><path
           class="st1"
           d="M416.43,361.85H65.55c-7.46,0-13.5-6.05-13.5-13.5V124.18c0-7.46,6.05-13.5,13.5-13.5h350.87     c7.46,0,13.5,6.05,13.5,13.5v224.16C429.93,355.8,423.88,361.85,416.43,361.85z"
           id="path29" /><path
           class="st2"
           d="M411.12,351.07H70.86c-4.45,0-8.06-3.61-8.06-8.06v-213.5c0-4.45,3.61-8.06,8.06-8.06h340.26     c4.45,0,8.06,3.61,8.06,8.06v213.5C419.18,347.46,415.57,351.07,411.12,351.07z"
           id="path31" /></g><path
         class="st3"
         d="M271.75,235.69H119.03c-4.65,0-8.42-3.77-8.42-8.42v-73.5c0-4.65,3.77-8.42,8.42-8.42h152.72    c4.65,0,8.42,3.77,8.42,8.42v73.5C280.17,231.92,276.4,235.69,271.75,235.69z"
         id="path35" /><path
         class="st3"
         d="M122.91,284.4h144.96c6.8,0,12.3-5.51,12.3-12.3v0c0-6.8-5.51-12.3-12.3-12.3H122.91    c-6.8,0-12.3,5.51-12.3,12.3v0C110.61,278.89,116.11,284.4,122.91,284.4z"
         id="path37" /><path
         class="st3"
         d="M122.91,319.74h144.96c6.8,0,12.3-5.51,12.3-12.3v0c0-6.8-5.51-12.3-12.3-12.3H122.91    c-6.8,0-12.3,5.51-12.3,12.3v0C110.61,314.23,116.11,319.74,122.91,319.74z"
         id="path39" /><path
         class="st3"
         d="M343.59,136.97c-0.07,0-0.14-0.01-0.21-0.01c-24.79,0-44.89,20.02-45.04,44.77h45.26V136.97z"
         id="path41" /><path
         class="st3"
         d="M305.76,190.43c0,0.1-0.01,0.19-0.01,0.29c0,24.88,20.17,45.05,45.05,45.05c0.07,0,0.14-0.01,0.21-0.01    v-45.33H305.76z"
         id="path43" /><path
         class="st3"
         d="M351.02,145.67v44.76h44.83C395.69,165.75,375.71,145.79,351.02,145.67z"
         id="path45" /><path
         class="st3"
         d="M351.02,190.43v45.33c24.78-0.12,44.84-20.24,44.84-45.05c0-0.1-0.01-0.19-0.01-0.29H351.02z"
         id="path47" /><linearGradient
         id="SVGID_3_"
         gradientUnits="userSpaceOnUse"
         x1="300.7993"
         y1="270.1938"
         x2="405.5166"
         y2="270.1938"><stop
           offset="0"
           style="stop-color:#F0F2F5"
           id="stop49" /><stop
           offset="0.9901"
           style="stop-color:#F5F7F8"
           id="stop51" /></linearGradient><line
         class="st4"
         x1="305.75"
         y1="270.19"
         x2="400.56"
         y2="270.19"
         id="line54" /><linearGradient
         id="SVGID_4_"
         gradientUnits="userSpaceOnUse"
         x1="300.7993"
         y1="307.434"
         x2="405.5166"
         y2="307.434"><stop
           offset="0"
           style="stop-color:#F0F2F5"
           id="stop56" /><stop
           offset="0.9901"
           style="stop-color:#F5F7F8"
           id="stop58" /></linearGradient><line
         class="st5"
         x1="305.75"
         y1="307.43"
         x2="400.56"
         y2="307.43"
         id="line61" /><linearGradient
         id="SVGID_5_"
         gradientUnits="userSpaceOnUse"
         x1="103.5697"
         y1="382.3904"
         x2="181.9138"
         y2="382.3904"><stop
           offset="0"
           style="stop-color:#EDEDED"
           id="stop63" /><stop
           offset="9.926021e-03"
           style="stop-color:#EDEDED"
           id="stop65" /><stop
           offset="0.5279"
           style="stop-color:#FBFBFB"
           id="stop67" /><stop
           offset="1"
           style="stop-color:#FFFFFF"
           id="stop69" /></linearGradient><path
         class="st6"
         d="M171.59,434.87c-1.67,1.11-3.32,2.1-4.93,3c-13.3,7.41-24.63,7.91-33.4,5.89    c-7.61-1.74-13.28-5.38-16.64-8.04c-2.28-1.81-6.63-4.02-6.63-4.02s-6.42-55.74-6.42-75.67c0-14.49,6.13-29.97,8.24-34.88    c10.29,3.03,35.96,8.74,59.02-1.14C191.18,357.42,178.62,406.87,171.59,434.87z"
         id="path72" /><linearGradient
         id="SVGID_6_"
         gradientUnits="userSpaceOnUse"
         x1="149.3504"
         y1="487.8089"
         x2="127.4296"
         y2="497.7463"><stop
           offset="0"
           style="stop-color:#753200"
           id="stop74" /><stop
           offset="1"
           style="stop-color:#A04400"
           id="stop76" /></linearGradient><path
         class="st7"
         d="M146.79,483.64L146.79,483.64c2.45-13.89-19.21-35.29-13.53-39.88c-7.61-1.74-13.28-5.38-16.64-8.04    c-0.95,8.65-2.05,23.58-0.32,36.48c0.01-0.07,12.1,47.68,14.89,48.74c6.49,18.12,14.04,33.94,14.04,33.94l9.92-2.76    C155.16,552.11,150.76,512.08,146.79,483.64z"
         id="path79" /><linearGradient
         id="SVGID_7_"
         gradientUnits="userSpaceOnUse"
         x1="109.9924"
         y1="493.476"
         x2="166.6581"
         y2="493.476"><stop
           offset="0"
           style="stop-color:#753200"
           id="stop81" /><stop
           offset="1"
           style="stop-color:#A04400"
           id="stop83" /></linearGradient><path
         class="st8"
         d="M166.66,437.86c0,15.88-16.47,19.35-35.93,81.76v0.01c-5.01,16.01-10.81,29.46-10.81,29.46l-9.93-3.3    c0,0,0.03-0.48,0.07-1.37v-0.01c1.78-33.17-1.86-80.38,23.19-100.65C142.02,445.77,153.36,445.27,166.66,437.86z"
         id="path86" /><linearGradient
         id="SVGID_8_"
         gradientUnits="userSpaceOnUse"
         x1="-1250.2638"
         y1="-475.3019"
         x2="-1185.7214"
         y2="-475.3019"
         gradientTransform="matrix(0.6442 0.7648 -0.7648 0.6442 796.6139 1468.7212)"><stop
           offset="0"
           style="stop-color:#753200"
           id="stop88" /><stop
           offset="1"
           style="stop-color:#A04400"
           id="stop90" /></linearGradient><path
         class="st9"
         d="M410.43,240.11l-34.92-4.53l-12.15-12.77c-0.82-0.97-1.96-1.61-3.21-1.81c-3.47-0.53-11.37-0.99-11.69-1.08    c-0.29-0.08-5.34-0.57-8.56-0.88c-0.81-0.08-1.2,0.96-0.54,1.44c2.05,1.48,5.27,3.37,8.17,3.19c4.72-0.29,7.9,2.24,8.13,2.52    c0.24,0.28,4.3,3.59,2.94,4.25c-1.36,0.67-5.51-2.73-6.02-2.78s-5.54-3.19-6.53-0.92s9.66,7,11.55,8.53    c1.89,1.53,3.09,5.25,5.24,6.65c2.14,1.4,36.79,10.86,36.79,10.86L410.43,240.11z"
         id="path93" /><path
         d="M380.65,250.87l72.08,18.63c0,0,57.69-24.34,67.12-32.8c9.43-8.46-23.16-20.39-23.16-20.39l-48.75,34.37l-67.56-19.74    L380.65,250.87z"
         id="path95" /><g
         id="g108"><linearGradient
           id="SVGID_9_"
           gradientUnits="userSpaceOnUse"
           x1="-4897.7788"
           y1="572.2065"
           x2="-4900.6143"
           y2="532.8273"
           gradientTransform="matrix(-1 0 0 1 -4346.1162 0)"><stop
             offset="0"
             style="stop-color:#753200"
             id="stop97" /><stop
             offset="1"
             style="stop-color:#A04400"
             id="stop99" /></linearGradient><path
           class="st10"
           d="M559.83,573.67c-0.93,1.83-17.76-2.71-17.76-2.71s0.14-0.63,0.39-1.69l4.83-21.11     c0.47-9.35-1.34-18.55-1.34-18.55c5,2.68,15.86,0.74,15.86,0.74s-1.01,7.12,0.15,9.42c0.2,0.4,0.38,0.96,0.53,1.6     c0.68,2.98,0.7,8.05,0.13,11.14c-0.44,2.38-1.07,9.45-1.71,14.81l0,0.01C560.54,570.47,560.17,572.99,559.83,573.67z"
           id="path102" /><path
           d="M561.21,566.32C561.2,566.33,561.2,566.33,561.21,566.32c-0.11,0.38-0.2,0.71-0.28,1.02c0.63-5.36,1.26-12.43,1.71-14.81     c0.57-3.08,0.56-8.15-0.13-11.14c1.39,1.42,2.48,3.66,2.38,6.35C564.75,551.43,562.52,561.54,561.21,566.32z"
           id="path104" /><path
           d="M561.31,576.9c-1.59,4.74-8.75,9.23-14.68,8.38c-5.5-0.79-9.53-8.72-4.17-16c-0.24,1.06-0.39,1.69-0.39,1.69     s16.83,4.53,17.76,2.71c0.34-0.68,0.71-3.21,1.09-6.32l0-0.01c0.08-0.31,0.79-6.09,0.89-6.46     C562.38,564.32,562.2,574.25,561.31,576.9z"
           id="path106" /></g><g
         id="g121"><linearGradient
           id="SVGID_10_"
           gradientUnits="userSpaceOnUse"
           x1="-4845.1626"
           y1="530.9287"
           x2="-4838.5469"
           y2="574.0884"
           gradientTransform="matrix(-1 0 0 1 -4346.1162 0)"><stop
             offset="0"
             style="stop-color:#753200"
             id="stop110" /><stop
             offset="1"
             style="stop-color:#A04400"
             id="stop112" /></linearGradient><path
           class="st11"
           d="M483.37,567.87c0,1.4,7.46,4.97,9.39,5.59c1.92,0.62,5.69-2.02,5.53-7.15c-0.15-5.13,9.01-25.78,9.48-27.03     c0.34-0.91-0.48-1.91-0.95-2.37c-0.17-0.17-0.29-0.27-0.29-0.27l1.24-6.22l-16.92-3.57c0,0-1.1,9.79-1.72,12.58     c-0.62,2.8-0.47,7.61-1.4,12.55c-0.85,4.47-3.74,12.73-4.27,15.29C483.4,567.53,483.37,567.74,483.37,567.87z"
           id="path115" /><path
           d="M475.14,581.54c2.49,1.71,13.82-0.93,19.27-2.18c5.43-1.24,5.74-10.25,6.06-13.66c0.14-1.58,2-5.01,4.24-8.64v-0.01     c1.44-2.35,3.03-4.78,4.42-6.85v-0.01l0.01-0.01c0.56-0.86,1.09-1.65,1.56-2.36c0.76-1.16,1.01-2.59,0.65-3.93     c-1.03-3.96-2.92-5.97-4.53-6.97c0.47,0.46,1.3,1.45,0.95,2.37c-0.47,1.25-9.63,21.9-9.48,27.03c0.16,5.13-3.61,7.77-5.53,7.15     c-1.93-0.62-9.39-4.19-9.39-5.59c0-0.13,0.03-0.34,0.08-0.6C479.79,571.31,473.13,580.15,475.14,581.54z"
           id="path117" /><path
           class="st12"
           d="M504.27,570.04h2.1l2.76-19.84c-1.39,2.07-2.97,4.5-4.42,6.85v0.01L504.27,570.04z"
           id="path119"
           style="fill:#000000" /></g><path
         class="st13"
         d="M492.17,317.76c-13.44,40.32-10.98,117.51-10.98,117.51l7.89,97.75c0,0,10.08,0,21,0    c5.15-59.1-1.59-94.6-1.59-94.6l7.56-64.87l10.51,66.13l17.34,93.34c0,0,15.12,0,21.42,0c0.63-15.75-3.48-55.13-11.67-96.49    c6.3-36.54,5.03-60.1,2.77-76.36c-4.34-31.18-19.35-47.73-19.35-47.73L492.17,317.76z"
         id="path123" /><g
         id="g153"><linearGradient
           id="SVGID_11_"
           gradientUnits="userSpaceOnUse"
           x1="-1648.9392"
           y1="3674.4116"
           x2="-1605.2389"
           y2="3674.4116"
           gradientTransform="matrix(-0.7579 -0.6524 0.6524 -0.7579 -3087.4153 2098.635)"><stop
             offset="0"
             style="stop-color:#753200"
             id="stop125" /><stop
             offset="1"
             style="stop-color:#A04400"
             id="stop127" /></linearGradient><path
           class="st14"
           d="M535.72,349.9l10.88-1.75c0,0,0.58,10.71,1.33,13.76c0.73,3.05,7.67,15.89,7.67,15.89     s-2.14,14.54-2.41,14.85c-0.27,0.31-7.87,13.54-8.51,13.78c-0.64,0.24-1.69,0.05-1.7-3.05c0-2.04,2.79-5.23,4.52-8.24     c0.9-1.55,1.66-2.98,1.9-4c0.71-3.02-2.66-10.5-3.56-9.92c-0.89,0.56-0.12,13.72-1.45,13.39c-0.45-0.11-0.81-0.61-1.13-1.36     c-0.07-0.14-0.13-0.3-0.19-0.48c-0.29-0.81-0.53-1.83-0.73-2.87c-0.15-0.77-0.29-1.58-0.42-2.31c0-0.05-0.02-0.08-0.02-0.13     c-0.13-0.75-0.28-1.72-0.45-2.82c-0.59-3.19-1.57-7.46-3.79-10.16c-2.96-3.62-2.46-7.13-1.3-9.52     C537.54,362.56,535.72,349.9,535.72,349.9z"
           id="path130" /><linearGradient
           id="SVGID_12_"
           gradientUnits="userSpaceOnUse"
           x1="-1643.684"
           y1="3661.8542"
           x2="-1633.332"
           y2="3661.8542"
           gradientTransform="matrix(-0.7579 -0.6524 0.6524 -0.7579 -3087.4153 2098.635)"><stop
             offset="0"
             style="stop-color:#753200"
             id="stop132" /><stop
             offset="1"
             style="stop-color:#A04400"
             id="stop134" /></linearGradient><path
           class="st15"
           d="M545.84,381.22c0.9-0.58,4.27,6.9,3.56,9.92c-0.24,1.02-0.99,2.45-1.9,4c-1.94,1.25-5.01,3.08-6.31,3.04     c-1.96-0.07-6.3,0.7-6.6-0.15s2.2-2.74,4.37-2.58c2.73,0.21,3.15-1.26,3.81-2.23l0.49,0.03c0.32,0.75,0.68,1.25,1.13,1.36     C545.72,394.94,544.94,381.78,545.84,381.22z"
           id="path137" /><linearGradient
           id="SVGID_13_"
           gradientUnits="userSpaceOnUse"
           x1="-1639.2368"
           y1="3659.1406"
           x2="-1631.0142"
           y2="3659.1406"
           gradientTransform="matrix(-0.7579 -0.6524 0.6524 -0.7579 -3087.4153 2098.635)"><stop
             offset="0"
             style="stop-color:#753200"
             id="stop139" /><stop
             offset="1"
             style="stop-color:#A04400"
             id="stop141" /></linearGradient><path
           class="st16"
           d="M536.58,389.63c1.68,0.24,5.76,0.27,5.76,0.27c0.2,1.04,0.44,2.06,0.73,2.87c0,0,0.1,0.07,0.19,0.48     c0,0-9.01,0.05-9.34-0.54C533.6,392.12,534.9,389.4,536.58,389.63z"
           id="path144" /><linearGradient
           id="SVGID_14_"
           gradientUnits="userSpaceOnUse"
           x1="-1634.5288"
           y1="3663.135"
           x2="-1629.2422"
           y2="3663.135"
           gradientTransform="matrix(-0.7579 -0.6524 0.6524 -0.7579 -3087.4153 2098.635)"><stop
             offset="0"
             style="stop-color:#753200"
             id="stop146" /><stop
             offset="1"
             style="stop-color:#A04400"
             id="stop148" /></linearGradient><path
           class="st17"
           d="M541.45,384.64c0.17,1.1,0.33,2.07,0.45,2.82c0,0.05,0.02,0.08,0.02,0.13c0,0-6.06,0.76-6.4,0.47     C535.19,387.76,535.46,384.64,541.45,384.64z"
           id="path151" /></g><path
         d="M544.15,318.37l-6.42-17.73c0,0,13.97-45.4,10.11-66.17c-3.86-20.77-17.46-32.35-17.46-32.35l-18.97,4.1    c-6.88,1.49-12.73,5.96-15.96,12.22c-5.81,11.23-14.58,28.5-15.55,32.27c-1.47,5.7,7.8,73.52,7.8,73.52l9.79-1.34L544.15,318.37z"
         id="path155" /><path
         d="M551.4,360.44l13.05-63.52c0,0-9.53-73.57-18.92-82.07c-9.39-8.5-20.06,4.24-20.06,4.24l19.27,79.29l-13.13,64.4    L551.4,360.44z"
         id="path157" /><linearGradient
         id="SVGID_15_"
         gradientUnits="userSpaceOnUse"
         x1="533.146"
         y1="271.0065"
         x2="541.9236"
         y2="271.0065"><stop
           offset="0"
           style="stop-color:#000000"
           id="stop159" /><stop
           offset="1"
           style="stop-color:#000000"
           id="stop161" /></linearGradient><polygon
         class="st18"
         points="533.15,250.68 541.92,285.25 540.36,291.33   "
         id="polygon164" /><path
         class="st13"
         d="M227.38,260.85c0,0-9.96,21.25-21.58,25.91c-11.62,4.65-35.88-20.66-35.88-20.66s-7.86,12.16-6.93,21.25    c0.93,9.09,5.74,26.02,13.39,35.65c-27.19,19.18-72.69,2.62-72.69,2.62l8.51-18.55l2.77-16.81l-6.99-23.52l-12.75,21.35    l11.95,11.96l-1.21,1.51l-11.01,13.76l-1.07,1.33c0,0-22.58-14.94-22.91-23.87c-0.34-8.93,22.83-52.59,27.31-62.05    c3.04-6.43,11.5-11.81,24.26-14.53c6.01-1.28,12.99-1.98,20.82-1.91c1.57,0.01,3.12,0.15,4.66,0.38    c27.84,4.25,50.8,42.87,50.8,42.87l9.63-13.95l3.48,3.17l12.21,11.13L227.38,260.85z"
         id="path166" /><linearGradient
         id="SVGID_16_"
         gradientUnits="userSpaceOnUse"
         x1="94.9514"
         y1="310.526"
         x2="112.188"
         y2="310.526"><stop
           offset="0"
           style="stop-color:#753200"
           id="stop168" /><stop
           offset="1"
           style="stop-color:#A04400"
           id="stop170" /></linearGradient><path
         class="st19"
         d="M112.19,307.07l-4.97,12.43c-4.04-0.97-9.17-2.92-12.27-4.18l11.01-13.76L112.19,307.07z"
         id="path173" /><linearGradient
         id="SVGID_17_"
         gradientUnits="userSpaceOnUse"
         x1="211.9267"
         y1="222.2475"
         x2="237.4254"
         y2="222.2475"><stop
           offset="0"
           style="stop-color:#753200"
           id="stop175" /><stop
           offset="1"
           style="stop-color:#A04400"
           id="stop177" /></linearGradient><path
         class="st20"
         d="M236.14,225.86c-1.31,3.36-8.49,22.6-12.01,32.03l-12.21-11.13c4.15-5.78,13.58-18.85,13.87-22.27    c0.37-4.35-1.87-2.74-2.99-6.48c-1.12-3.74-5.98-11.58-6.48-14.94s0.16-4.35,1.58-3.86c1.41,0.5,4.15,8.35,6.15,7.6    c1.99-0.75,1.82-7.22,1.79-8.35c-0.04-1-5.02-8.78-1.58-11.57c0.73-0.59,1.83-0.26,2.18,0.61c1.1,2.71,2.78,7.34,2.78,7.34    s0.56-0.87,2.42,0.38c1.87,1.25,0.24,1.63,2.85,3.13c2.61,1.49,2.01,1.97,2.51,5.84C237.51,208.06,237.88,221.38,236.14,225.86z"
         id="path180" /><linearGradient
         id="SVGID_18_"
         gradientUnits="userSpaceOnUse"
         x1="121.0139"
         y1="188.182"
         x2="172.2611"
         y2="188.182"><stop
           offset="0"
           style="stop-color:#753200"
           id="stop182" /><stop
           offset="1"
           style="stop-color:#A04400"
           id="stop184" /></linearGradient><path
         class="st21"
         d="M169.91,162.33c6.67,14.64-2.59,28.63-6.52,31.04c-6.02,3.68-10.07,3.25-13,8.53    c-1.92,3.45-0.76,7.96,0.6,13.31c-1.81-0.28-3.63-0.44-5.48-0.45c-9.21-0.08-17.42,0.74-24.5,2.25l2.78-16.05    c1.08,0.18,4.98,0.86,5.89,0.9c5.56,0.3,15.53-1.17,14.79-7.03c-0.73-5.86,4.15-4.68,7.87-8.79c3.71-4.11,4.3-6.15,1.95-11.72    c-2.35-5.57-2.64-5.57,0.29-8.21c2.94-2.64,4.99-6.74,4.99-6.74c1.76,3.82,2.64,9.09,5.57,7.91    C168.07,166.1,167.95,162.09,169.91,162.33z"
         id="path187" /><linearGradient
         id="SVGID_19_"
         gradientUnits="userSpaceOnUse"
         x1="81.7859"
         y1="151.2871"
         x2="180.643"
         y2="151.2871"><stop
           offset="0"
           style="stop-color:#000000"
           id="stop189" /><stop
           offset="0.4626"
           style="stop-color:#0B0B0A"
           id="stop191" /><stop
           offset="1"
           style="stop-color:#1D1D1B"
           id="stop193" /></linearGradient><path
         class="st22"
         d="M179.22,153.21c-3.52,4.4-2.64,3.82-4.11,6.15c-1.47,2.35-3.23,3.23-5.19,2.97h-0.01    c-1.96-0.24-1.84,3.77-4.76,4.94c-2.94,1.18-3.82-4.1-5.57-7.91c0,0-2.05,4.11-4.99,6.74c-2.93,2.64-2.64,2.64-0.29,8.21    c2.35,5.56,1.76,7.61-1.95,11.72c-3.72,4.11-8.6,2.93-7.87,8.79c0.74,5.86-9.23,7.33-14.79,7.03c-0.91-0.04-1.93-0.17-3.01-0.35    c-5.49-0.9-12.52-3.11-15.46-2.86c-3.52,0.29-9.96-3.23-11.72-7.92c-1.76-4.68-6.15-5.27-8.79-7.32    c-2.64-2.05-1.76-5.86-0.59-12.31c1.17-6.45-3.52-5.27-7.03-7.33c-3.52-2.05,0.88-5.56,4.11-11.72c3.22-6.15-4.11-4.99-4.11-9.97    c0-4.97,4.4-4.97,7.91-6.15c3.52-1.17,2.05-8.2,5.27-13.78c3.23-5.56,11.43-0.29,11.14-6.74c-0.29-6.44,1.76-5.56,6.15-7.03    c4.4-1.46,2.82,0.06,7.45-5.17c5.8-6.55,11.56,1.82,20.65,1.53c9.08-0.29,6.78-1.33,12.05,0.42c5.29,1.76,7.92,9.96,9.68,12.9    c1.76,2.93,9.08,2.93,10.55,5.27c1.46,2.34,0.88,9.08,3.23,12.01c2.34,2.94,5.27,3.53,2.05,6.45    C175.99,144.7,182.73,148.81,179.22,153.21z"
         id="path196"
         style="fill:#000000;fill-opacity:1" /><path
         d="M176.22,585.12c-0.02,0.02-0.04,0.03-0.05,0.04c-1.58-0.87-12.5-6.9-17.12-10.36c-4.52-3.39-11-3.4-14.39-0.85    c-0.35,0.26-0.66,0.54-0.93,0.85c-1.58-6.87-0.66-14.74,0.23-19.58l12.27-3.42c1.09,3.55,2.9,8.94,5.18,14.02    C165.04,573.87,174.97,583.87,176.22,585.12z"
         id="path198" /><path
         d="M176.17,585.16c-10.35,6.83-20.39-0.81-20.39-0.81l0.95,4.19h-7.86c0,0-0.77-2.03-1.39-3.28    c-1.58-3.15-3.36-7.37-3.76-10.58c3.9-4.05,10.82-3.27,15.34,0.12C163.67,578.26,174.59,584.28,176.17,585.16z"
         id="path200" /><path
         d="M141.25,587.87c0,0-3.37,0.31-9.02,0.46h-0.03c-0.57,0.02-1.18,0.04-1.79,0.05c-6.72,0.12-8.34-6.85-10.96-13.95    c-2.61-7.1-13.29-12.95-18.79-9.1c0.15-0.87,0.32-1.59,0.45-2.13c0.02-0.07,0.04-0.15,0.05-0.22c0.15-0.58,0.25-0.9,0.25-0.9    c1.93-6.5,5.28-14.41,7.62-18.13c-0.05,0.88,11.94,5.49,11.94,5.49c0.39,4.98,2.11,9.9,3.59,13.66    c1.87,4.73,9.58,20.79,13.2,20.92C141.37,584.14,141.25,587.87,141.25,587.87z"
         id="path202" /><path
         d="M132.2,588.33c-3.94,0.56-13.19-0.17-14.64-0.58c-1.76-0.49-1.48-6.72-3.96-7.1c-2.49-0.37-2.11,7.1-2.11,7.1H99.85    c0,0,0.42-3.36,0.05-11.45c-0.21-4.51,0.28-8.4,0.77-10.97c5.49-3.84,16.17,2,18.79,9.1c2.62,7.1,4.24,14.07,10.96,13.95    C131.03,588.37,131.63,588.35,132.2,588.33z"
         id="path204" /><linearGradient
         id="SVGID_20_"
         gradientUnits="userSpaceOnUse"
         x1="551.6689"
         y1="495.2518"
         x2="598.616"
         y2="495.2518"
         gradientTransform="matrix(0.9855 -0.1697 0.1697 0.9855 -156.5345 -224.5794)"><stop
           offset="0"
           style="stop-color:#000000"
           id="stop206" /><stop
           offset="1"
           style="stop-color:#000000"
           id="stop208" /></linearGradient><path
         class="st23"
         d="M508.65,126.66l-6.12-1.26c-0.69-0.14-1.38,0.2-1.69,0.82l-2.2,4.43c-0.22,0.44-0.63,0.75-1.12,0.83    l-3.42,0.59c-0.78,0.13-1.33,0.83-1.28,1.62l0.27,4.06c0.05,0.79-0.5,1.49-1.28,1.62l-3.09,0.53c-0.77,0.13-1.32,0.82-1.28,1.6    l0.17,3.34c0.03,0.56-0.25,1.09-0.73,1.39l-3.71,2.29c-0.81,0.5-0.98,1.61-0.35,2.33l2.38,2.71c0.6,0.69,0.48,1.75-0.27,2.28    l-4.23,3c-0.65,0.46-0.84,1.35-0.44,2.04l1.83,3.12c0.33,0.56,0.27,1.27-0.15,1.77l-2.2,2.62c-0.59,0.7-0.44,1.76,0.31,2.27    l2.32,1.57c0.72,0.49,0.89,1.48,0.38,2.18l-3.62,5.01c-0.43,0.59-0.38,1.4,0.1,1.94l2.22,2.46c0.5,0.56,0.53,1.4,0.07,1.99    l-3.41,4.33c-0.45,0.57-0.44,1.38,0.02,1.94l3.24,3.91c0.45,0.54,0.48,1.31,0.07,1.88l-1.8,2.52c-0.35,0.49-0.38,1.13-0.09,1.66    l1.58,2.79c0.11,0.2-0.16,0.68-0.19,1.31c-0.02,0.42-0.01,0.83,0.03,1.22"
         id="path211" /><linearGradient
         id="SVGID_21_"
         gradientUnits="userSpaceOnUse"
         x1="558.6991"
         y1="496.4625"
         x2="605.6462"
         y2="496.4625"
         gradientTransform="matrix(0.9855 -0.1697 0.1697 0.9855 -156.5345 -224.5794)"><stop
           offset="0"
           style="stop-color:#000000"
           id="stop213" /><stop
           offset="1"
           style="stop-color:#000000"
           id="stop215" /></linearGradient><path
         class="st24"
         d="M515.79,126.66l-6.12-1.26c-0.69-0.14-1.38,0.2-1.69,0.82l-2.2,4.43c-0.22,0.44-0.63,0.75-1.12,0.83    l-3.42,0.59c-0.78,0.13-1.33,0.83-1.28,1.62l0.27,4.06c0.05,0.79-0.5,1.49-1.28,1.62l-3.09,0.53c-0.77,0.13-1.32,0.82-1.28,1.6    l0.17,3.34c0.03,0.56-0.25,1.09-0.73,1.39l-3.71,2.29c-0.81,0.5-0.98,1.61-0.35,2.33l2.38,2.71c0.6,0.69,0.48,1.75-0.27,2.28    l-4.23,3c-0.65,0.46-0.84,1.35-0.44,2.04l1.83,3.12c0.33,0.56,0.27,1.27-0.15,1.77l-2.2,2.62c-0.59,0.7-0.44,1.76,0.31,2.27    l2.32,1.57c0.72,0.49,0.89,1.48,0.38,2.18l-3.62,5.01c-0.43,0.59-0.38,1.4,0.1,1.94l2.22,2.46c0.5,0.56,0.53,1.4,0.07,1.99    l-3.41,4.33c-0.45,0.57-0.44,1.38,0.02,1.94l3.24,3.91c0.45,0.54,0.48,1.31,0.07,1.88l-1.8,2.52c-0.35,0.49-0.38,1.13-0.09,1.66    l1.58,2.79c0.11,0.2-0.16,0.68-0.19,1.31c-0.02,0.42-0.01,0.83,0.03,1.22"
         id="path218" /><linearGradient
         id="SVGID_22_"
         gradientUnits="userSpaceOnUse"
         x1="543.4156"
         y1="491.2337"
         x2="590.3629"
         y2="491.2337"
         gradientTransform="matrix(0.9855 -0.1697 0.1697 0.9855 -156.5345 -224.5794)"><stop
           offset="0"
           style="stop-color:#000000"
           id="stop220" /><stop
           offset="1"
           style="stop-color:#000000"
           id="stop222" /></linearGradient><path
         class="st25"
         d="M499.84,124.1l-6.12-1.26c-0.69-0.14-1.38,0.2-1.69,0.82l-2.2,4.43c-0.22,0.44-0.63,0.75-1.12,0.83    l-3.42,0.59c-0.78,0.13-1.33,0.83-1.28,1.62l0.27,4.06c0.05,0.79-0.5,1.49-1.28,1.62l-3.09,0.53c-0.77,0.13-1.32,0.82-1.28,1.6    l0.17,3.34c0.03,0.56-0.25,1.09-0.73,1.39l-3.71,2.29c-0.81,0.5-0.98,1.61-0.35,2.33l2.38,2.71c0.6,0.69,0.48,1.75-0.27,2.28    l-4.23,3c-0.65,0.46-0.84,1.35-0.44,2.04l1.83,3.12c0.33,0.56,0.27,1.27-0.15,1.77l-2.2,2.62c-0.59,0.7-0.44,1.76,0.31,2.27    l2.32,1.57c0.72,0.49,0.89,1.48,0.38,2.18l-3.62,5.01c-0.43,0.59-0.38,1.4,0.1,1.94l2.22,2.46c0.5,0.56,0.53,1.4,0.07,1.99    l-3.41,4.33c-0.45,0.57-0.44,1.38,0.02,1.94l3.24,3.91c0.45,0.54,0.48,1.31,0.07,1.88l-1.8,2.52c-0.35,0.49-0.38,1.13-0.09,1.66    l1.58,2.79c0.11,0.2-0.16,0.68-0.19,1.31c-0.02,0.42-0.01,0.83,0.03,1.22"
         id="path225" /><g
         id="g278"><linearGradient
           id="SVGID_23_"
           gradientUnits="userSpaceOnUse"
           x1="-3469.7896"
           y1="201.8978"
           x2="-3458.4485"
           y2="139.7491"
           gradientTransform="matrix(-1 0 0 1 -2952.5562 0)"><stop
             offset="0.2797"
             style="stop-color:#000000"
             id="stop227" /><stop
             offset="1"
             style="stop-color:#000000"
             id="stop229" /></linearGradient><path
           class="st26"
           d="M486.61,140.53c20.7-18.11,51.53-7.43,58.79,15.3c16.46,51.52-42.95,52.39-49.81,54.91     C471.58,194.31,468.91,157.43,486.61,140.53z"
           id="path232" /><linearGradient
           id="SVGID_24_"
           gradientUnits="userSpaceOnUse"
           x1="-3512.4521"
           y1="164.2012"
           x2="-3445.9822"
           y2="133.4334"
           gradientTransform="matrix(-1 0 0 1 -2952.5562 0)"><stop
             offset="0.2797"
             style="stop-color:#000000"
             id="stop234" /><stop
             offset="1"
             style="stop-color:#000000"
             id="stop236" /></linearGradient><path
           class="st27"
           d="M480.32,149.88c0.11,1.25,0.27,2.49,0.44,3.71c1.66-6.35,12.49-13.54,24.76-12.42c0,0,0,1.48,2.31,1.9     c2.3,0.41,3.33-2.47,3.85,0c0.51,2.46,0.51,5.8,3.33,5.8s4.62,1.79,4.87,3.59c0.26,1.79-4.51,8.25-2.12,9.83     c2.73,1.81,4.71,8.59,4.71,8.59s2.13-15.74,10.61-6.52c0.6,1.69,1.1,3.4,1.53,5.1c0.4-2.47-0.24-4.39-1.6-5.62     c-0.37-0.34-0.8-0.62-1.29-0.85c0,0,2.05-5.9,2.05-12.94c0-2.42,5.47-11.32,4.82-13.81c-3.36-12.95-25.92-20.74-36.84-19.99     C490.83,117.01,479.28,137.75,480.32,149.88z"
           id="path239" /><linearGradient
           id="SVGID_25_"
           gradientUnits="userSpaceOnUse"
           x1="-1291.2596"
           y1="120.4272"
           x2="-1314.5383"
           y2="143.2748"
           gradientTransform="matrix(0.9771 0.2127 -0.2127 0.9771 1815.6842 341.5696)"><stop
             offset="0"
             style="stop-color:#A04400"
             id="stop241" /><stop
             offset="1"
             style="stop-color:#753200"
             id="stop243" /></linearGradient><path
           class="st28"
           d="M527.87,185.68c-8.43,11.95-19.18,15.35-27.2,16.4l0.08-1.46l0.09-1.79c7.8-2.3,17.13-7.7,28-19.01     c-0.07,0.09-0.15,0.18-0.23,0.27c-0.13,0.16-0.51,3.08-0.67,4.84C527.92,185.17,527.89,185.42,527.87,185.68z"
           id="path246" /><linearGradient
           id="SVGID_26_"
           gradientUnits="userSpaceOnUse"
           x1="-3434.6975"
           y1="192.5496"
           x2="-3489.5859"
           y2="180.3211"
           gradientTransform="matrix(-1 0 0 1 -2952.5562 0)"><stop
             offset="0"
             style="stop-color:#753200"
             id="stop248" /><stop
             offset="1"
             style="stop-color:#A04400"
             id="stop250" /></linearGradient><path
           class="st29"
           d="M479.72,181.66c2.44,10.62,12.28,15.45,18.66,16.8c0.61,0.12,1.19,0.22,1.73,0.28     c0.26,0.04,0.5,0.07,0.73,0.09l-0.09,1.79l-0.16,2.29l-0.14,2.03l-0.61,33.16c-0.57,2.39,25.38-26.53,25.56-29.74     c0,0,0.94-4.89,2.23-19.76c0.08-0.93,0.16-1.9,0.24-2.91c0.03-0.26,0.05-0.51,0.07-0.75c0.04-0.5,0.11-1.1,0.18-1.71     c0.17-1.5,0.39-3.03,0.48-3.14c0.09-0.09,0.16-0.17,0.23-0.27c3.56-4.02,5.35-7.55,5.78-10.36c-0.24-0.98-0.52-1.97-0.82-2.94     c-0.53-1.74-1.6-3.31-3.16-4.27c-6.45-4-8.16,8.63-8.16,8.63s-21.81-4.51-27.2-29.98c-1.29-0.35-4.92-0.56-8.32,1.83     c-2.56,1.79-4.99,5.07-6.2,10.87v0.01c0.49,3.47,1.09,6.79,0.8,9.92C481.19,167.78,478,174.26,479.72,181.66z"
           id="path253" /><linearGradient
           id="SVGID_27_"
           gradientUnits="userSpaceOnUse"
           x1="-3448.5029"
           y1="151.0565"
           x2="-3479.3391"
           y2="165.7199"
           gradientTransform="matrix(-1 0 0 1 -2952.5562 0)"><stop
             offset="0.0985"
             style="stop-color:#753200"
             id="stop255" /><stop
             offset="0.5915"
             style="stop-color:#8F3D00;stop-opacity:0.4511"
             id="stop257" /><stop
             offset="0.9967"
             style="stop-color:#A04400;stop-opacity:0"
             id="stop259" /></linearGradient><path
           class="st30"
           d="M486.96,142.72c3.35,8.71,8.67,16.83,19.2,22.82c11.64,6.62,16.31,5.33,16.31,5.33s-21.81-4.51-27.2-29.98     C493.98,140.54,490.36,140.33,486.96,142.72z"
           id="path262" /><linearGradient
           id="SVGID_28_"
           gradientUnits="userSpaceOnUse"
           x1="-3485.0789"
           y1="184.1196"
           x2="-3457.6755"
           y2="199.3437"
           gradientTransform="matrix(-1 0 0 1 -2952.5562 0)"><stop
             offset="0"
             style="stop-color:#A04400"
             id="stop264" /><stop
             offset="1"
             style="stop-color:#753200"
             id="stop266" /></linearGradient><path
           class="st31"
           d="M500.74,200.62c0,0,17.97-2.1,26.88-12.03c0.08-0.93,0.16-1.9,0.24-2.91c0.03-0.26,0.05-0.51,0.07-0.75     c0.04-0.5,0.11-1.1,0.18-1.71c-10.9,8.81-20.18,13.4-28.02,15.52c0.26,0.04,0.5,0.07,0.73,0.09L500.74,200.62z"
           id="path269" /><linearGradient
           id="SVGID_29_"
           gradientUnits="userSpaceOnUse"
           x1="-1291.3121"
           y1="104.1705"
           x2="-1294.3186"
           y2="107.1213"
           gradientTransform="matrix(0.9771 0.2127 -0.2127 0.9771 1815.6842 341.5696)"><stop
             offset="0"
             style="stop-color:#A96E46"
             id="stop271" /><stop
             offset="1"
             style="stop-color:#FFD0B9"
             id="stop273" /></linearGradient><path
           class="st32"
           d="M527.39,167.83c0,0,2.53-2.98,3.96-0.46c1.44,2.52-1.4,6.43-1.4,6.43L527.39,167.83z"
           id="path276" /></g><linearGradient
         id="SVGID_30_"
         gradientUnits="userSpaceOnUse"
         x1="508.051"
         y1="157.6274"
         x2="554.9981"
         y2="157.6274"><stop
           offset="0"
           style="stop-color:#000000"
           id="stop280" /><stop
           offset="1"
           style="stop-color:#000000"
           id="stop282" /></linearGradient><path
         class="st33"
         d="M510.74,117.77l5.82-2.28c0.65-0.26,1.39-0.04,1.81,0.53l2.92,3.99c0.29,0.4,0.75,0.63,1.24,0.63H526    c0.79,0,1.45,0.6,1.53,1.38l0.43,4.05c0.08,0.78,0.74,1.38,1.53,1.38h3.14c0.78,0,1.44,0.58,1.53,1.36l0.4,3.32    c0.07,0.56,0.43,1.03,0.95,1.24l4.05,1.63c0.88,0.36,1.24,1.42,0.74,2.24l-1.88,3.08c-0.48,0.78-0.17,1.8,0.65,2.2l4.68,2.24    c0.72,0.34,1.06,1.18,0.78,1.93l-1.27,3.39c-0.23,0.61-0.05,1.3,0.45,1.72l2.61,2.2c0.7,0.59,0.73,1.66,0.08,2.29l-2.02,1.94    c-0.63,0.6-0.63,1.61-0.01,2.21l4.42,4.32c0.52,0.51,0.61,1.31,0.23,1.93l-1.77,2.8c-0.4,0.64-0.29,1.47,0.27,1.97l4.1,3.69    c0.54,0.49,0.67,1.29,0.31,1.92l-2.53,4.4c-0.35,0.61-0.25,1.37,0.25,1.87l2.2,2.18c0.43,0.42,0.57,1.05,0.37,1.62l-1.08,3.01    c-0.08,0.22,0.11,0.7,0.41,1.26c0.89,1.67,0.4,3.74-1.14,4.83l-0.18,3.66"
         id="path285" /><linearGradient
         id="SVGID_31_"
         gradientUnits="userSpaceOnUse"
         x1="-3503.4182"
         y1="165.7529"
         x2="-3456.4709"
         y2="165.7529"
         gradientTransform="matrix(-1 0 0 1 -2952.5562 0)"><stop
           offset="0"
           style="stop-color:#000000"
           id="stop287" /><stop
           offset="1"
           style="stop-color:#000000"
           id="stop289" /></linearGradient><path
         class="st34"
         d="M506.6,125.89l5.82-2.28c0.65-0.26,1.39-0.04,1.81,0.53l2.92,3.99c0.29,0.4,0.75,0.63,1.24,0.63h3.47    c0.79,0,1.45,0.6,1.53,1.38l0.43,4.05c0.08,0.78,0.74,1.38,1.53,1.38h3.14c0.78,0,1.44,0.58,1.53,1.36l0.4,3.32    c0.07,0.56,0.43,1.03,0.95,1.24l4.05,1.63c0.88,0.36,1.24,1.42,0.74,2.24l-1.88,3.08c-0.48,0.78-0.17,1.8,0.65,2.2l4.68,2.24    c0.72,0.34,1.06,1.18,0.78,1.93l-1.27,3.39c-0.23,0.61-0.05,1.3,0.45,1.72l2.61,2.2c0.7,0.59,0.73,1.66,0.08,2.29l-2.02,1.94    c-0.63,0.6-0.63,1.61-0.01,2.21l4.42,4.32c0.52,0.51,0.61,1.31,0.23,1.93l-1.77,2.8c-0.4,0.64-0.29,1.47,0.27,1.97l4.1,3.69    c0.54,0.49,0.67,1.29,0.31,1.92l-2.53,4.4c-0.35,0.61-0.25,1.37,0.25,1.87l2.2,2.18c0.43,0.42,0.57,1.05,0.37,1.62l-1.08,3.01    c-0.08,0.22,0.11,0.7,0.41,1.26c0.89,1.67,0.4,3.74-1.14,4.83l-0.18,3.66"
         id="path292" /><linearGradient
         id="SVGID_32_"
         gradientUnits="userSpaceOnUse"
         x1="-3518.1016"
         y1="160.7617"
         x2="-3471.1545"
         y2="160.7617"
         gradientTransform="matrix(-1 0 0 1 -2952.5562 0)"><stop
           offset="0"
           style="stop-color:#000000"
           id="stop294" /><stop
           offset="1"
           style="stop-color:#000000"
           id="stop296" /></linearGradient><path
         class="st35"
         d="M521.29,123.31l5.82-2.28c0.65-0.26,1.39-0.04,1.81,0.53l2.92,3.99c0.29,0.4,0.75,0.63,1.24,0.63h3.47    c0.79,0,1.45,0.6,1.53,1.38l0.43,4.05c0.08,0.78,0.74,1.38,1.53,1.38h3.14c0.78,0,1.44,0.58,1.53,1.36l0.4,3.32    c0.07,0.56,0.43,1.03,0.95,1.24l4.05,1.63c0.88,0.36,1.24,1.42,0.74,2.24l-1.88,3.08c-0.48,0.78-0.17,1.8,0.65,2.2l4.68,2.24    c0.72,0.34,1.06,1.18,0.78,1.93l-1.27,3.39c-0.23,0.61-0.05,1.3,0.45,1.72l2.61,2.2c0.7,0.59,0.73,1.66,0.08,2.29l-2.02,1.94    c-0.63,0.6-0.63,1.61-0.01,2.21l4.42,4.32c0.52,0.51,0.61,1.31,0.23,1.93l-1.77,2.8c-0.4,0.64-0.29,1.47,0.27,1.97l4.1,3.69    c0.54,0.49,0.67,1.29,0.31,1.92l-2.53,4.4c-0.35,0.61-0.25,1.37,0.25,1.87l2.2,2.18c0.43,0.42,0.57,1.05,0.37,1.62l-1.08,3.01    c-0.08,0.22,0.11,0.7,0.41,1.26c0.59,1.1-2.63,2.61-3.15,3.67"
         id="path299" /><linearGradient
         id="SVGID_33_"
         gradientUnits="userSpaceOnUse"
         x1="-3512.6775"
         y1="160.7617"
         x2="-3465.7305"
         y2="160.7617"
         gradientTransform="matrix(-1 0 0 1 -2952.5562 0)"><stop
           offset="0"
           style="stop-color:#000000"
           id="stop301" /><stop
           offset="1"
           style="stop-color:#000000"
           id="stop303" /></linearGradient><path
         class="st36"
         d="M515.86,123.31l5.82-2.28c0.65-0.26,1.39-0.04,1.81,0.53l2.92,3.99c0.29,0.4,0.75,0.63,1.24,0.63h3.47    c0.79,0,1.45,0.6,1.53,1.38l0.43,4.05c0.08,0.78,0.74,1.38,1.53,1.38h3.14c0.78,0,1.44,0.58,1.53,1.36l0.4,3.32    c0.07,0.56,0.43,1.03,0.95,1.24l4.05,1.63c0.88,0.36,1.24,1.42,0.74,2.24l-1.88,3.08c-0.48,0.78-0.17,1.8,0.65,2.2l4.68,2.24    c0.72,0.34,1.06,1.18,0.78,1.93l-1.27,3.39c-0.23,0.61-0.05,1.3,0.45,1.72l2.61,2.2c0.7,0.59,0.73,1.66,0.08,2.29l-2.02,1.94    c-0.63,0.6-0.63,1.61-0.01,2.21l4.42,4.32c0.52,0.51,0.61,1.31,0.23,1.93l-1.77,2.8c-0.4,0.64-0.29,1.47,0.27,1.97l4.1,3.69    c0.54,0.49,0.67,1.29,0.31,1.92l-2.53,4.4c-0.35,0.61-0.25,1.37,0.25,1.87l2.2,2.18c0.43,0.42,0.57,1.05,0.37,1.62l-1.08,3.01    c-0.08,0.22,0.11,0.7,0.41,1.26c0.59,1.1-2.63,2.61-3.15,3.67"
         id="path306" /><linearGradient
         id="SVGID_34_"
         gradientUnits="userSpaceOnUse"
         x1="-3628.2644"
         y1="318.7093"
         x2="-3580.9707"
         y2="318.7093"
         gradientTransform="matrix(-0.9964 0.0845 0.0845 0.9964 -3075.2217 141.9996)"><stop
           offset="0"
           style="stop-color:#000000"
           id="stop308" /><stop
           offset="1"
           style="stop-color:#000000"
           id="stop310" /></linearGradient><path
         class="st37"
         d="M519.37,119.17l5.6-2.77c0.63-0.31,1.39-0.16,1.85,0.37l3.25,3.73c0.32,0.37,0.8,0.57,1.29,0.52l3.46-0.29    c0.79-0.07,1.5,0.47,1.64,1.25l0.77,4c0.15,0.77,0.86,1.31,1.64,1.25l3.13-0.27c0.78-0.07,1.48,0.46,1.64,1.22l0.68,3.28    c0.11,0.55,0.52,0.99,1.06,1.16l4.17,1.28c0.91,0.28,1.35,1.31,0.93,2.16l-1.62,3.22c-0.41,0.82-0.02,1.81,0.83,2.13l4.85,1.83    c0.75,0.28,1.16,1.09,0.94,1.86l-0.98,3.48c-0.18,0.63,0.06,1.3,0.59,1.68l2.79,1.97c0.75,0.53,0.87,1.59,0.27,2.28l-1.85,2.1    c-0.57,0.65-0.49,1.65,0.18,2.21l4.77,3.93c0.56,0.46,0.72,1.25,0.39,1.9l-1.52,2.94c-0.35,0.67-0.16,1.49,0.44,1.94l4.4,3.33    c0.58,0.44,0.77,1.22,0.47,1.88l-2.15,4.6c-0.3,0.63-0.13,1.39,0.41,1.84l2.38,1.99c0.46,0.38,0.66,1,0.5,1.58l-0.82,3.09    c-0.06,0.22,0.32,0.61,0.51,1.22c0.75,2.42,2.1,3.74,1,3.92"
         id="path313" /><linearGradient
         id="SVGID_35_"
         gradientUnits="userSpaceOnUse"
         x1="-3505.3184"
         y1="158.6274"
         x2="-3458.9402"
         y2="158.6274"
         gradientTransform="matrix(-1 0 0 1 -2952.5562 0)"><stop
           offset="0"
           style="stop-color:#000000"
           id="stop315" /><stop
           offset="1"
           style="stop-color:#000000"
           id="stop317" /></linearGradient><path
         class="st38"
         d="M544.14,196.96l-1.01-7.69c-0.03-0.22,3.5,0.8,3.7,0.7l2.95-4.46c0.34-0.17,0.39-0.65,0.09-0.89l-7.29-5.75    c-0.22-0.17-0.27-0.49-0.1-0.72l2.18-3.06c0.13-0.18,0.13-0.43,0-0.62l-3.91-5.42c-0.1-0.14-0.13-0.33-0.07-0.49l1.93-5.29    c0.08-0.21,0.01-0.44-0.15-0.58l-3.19-2.74c-0.17-0.15-0.23-0.39-0.14-0.6l2.23-5.4c0.08-0.2,0.03-0.43-0.12-0.58l-3.27-3.15    c-0.21-0.2-0.22-0.53-0.02-0.74l1.54-1.62c0.21-0.22,0.19-0.58-0.05-0.78l-4.02-3.2c-0.21-0.17-0.26-0.46-0.12-0.69l1.8-2.95    c0.21-0.35-0.04-0.8-0.45-0.8h-3.65c-0.26,0-0.48-0.19-0.52-0.45l-0.64-4.09c-0.04-0.26-0.26-0.45-0.52-0.45h-4.57    c-0.33,0-0.58-0.3-0.52-0.63l0.65-3.4c0.06-0.33-0.19-0.63-0.52-0.63h-4.74c-0.29,0-0.53-0.24-0.53-0.53v-3.49    c0-0.29-0.24-0.53-0.53-0.53h-3.73c-0.29,0-0.53-0.24-0.53-0.53v-3.9c0-0.29-0.24-0.53-0.53-0.53h-6.67"
         id="path320" /><linearGradient
         id="SVGID_36_"
         gradientUnits="userSpaceOnUse"
         x1="-3481.4788"
         y1="140.9352"
         x2="-3454.5864"
         y2="140.9352"
         gradientTransform="matrix(-1 0 0 1 -2952.5562 0)"><stop
           offset="0"
           style="stop-color:#000000"
           id="stop322" /><stop
           offset="1"
           style="stop-color:#000000"
           id="stop324" /></linearGradient><path
         class="st39"
         d="M504.72,116.12l2.45,2.74c0.21,0.23,0.3,0.54,0.26,0.84l-0.38,2.85c-0.07,0.55,0.29,1.06,0.83,1.17l0.47,0.1    c0.83,0.18,1.12,1.2,0.51,1.79l-2.82,2.72c-0.58,0.56-0.34,1.55,0.44,1.77l1.26,0.36c0.67,0.19,0.97,0.98,0.6,1.57l-1.48,2.37    c-0.35,0.57-0.1,1.31,0.53,1.55l0.71,0.26c0.54,0.2,0.82,0.79,0.63,1.34l-1.49,4.27c-0.19,0.54,0.08,1.12,0.61,1.33l1.39,0.54    c0.56,0.22,0.83,0.87,0.58,1.42l-1.64,3.58c-0.32,0.7,0.19,1.49,0.96,1.49h2.92c0.25,0,0.48,0.08,0.67,0.24    c1.04,0.87,4.4,3.83,2.9,4.59c-1.35,0.69,1.8,0.99,3.35,1.09c0.47,0.03,0.86,0.37,0.96,0.84l1,4.8c0.06,0.28,0.23,0.53,0.47,0.68    l4.81,3.3"
         id="path327" /><linearGradient
         id="SVGID_37_"
         gradientUnits="userSpaceOnUse"
         x1="-3497.2266"
         y1="163.8025"
         x2="-3463.5466"
         y2="163.8025"
         gradientTransform="matrix(-1 0 0 1 -2952.5562 0)"><stop
           offset="0"
           style="stop-color:#000000"
           id="stop329" /><stop
           offset="1"
           style="stop-color:#000000"
           id="stop331" /></linearGradient><path
         class="st40"
         d="M513.68,125.53l9.7,9.89c0.52,0.58,0.59,1.45,0.15,2.1v0c-0.56,0.84-0.28,1.99,0.62,2.47l3.17,1.7    c0.82,0.44,1.15,1.45,0.73,2.28c-0.36,0.72-0.7,1.49-0.66,1.76c0.1,0.54,3.98,4.66,4.37,5.19c0.25,0.34-0.23,2.34-0.62,3.77    c-0.23,0.85,0.22,1.73,1.04,2.05l1.45,0.56c0.66,0.26,1.1,0.89,1.1,1.6v5.48c0,0.33,0.09,0.65,0.27,0.93    c0.56,0.87,1.88,2.83,2.7,3.51c0.86,0.72,0.34,3.96,0.1,5.23c-0.07,0.34-0.02,0.7,0.12,1.02l1.35,3.01    c0.14,0.31,0.18,0.65,0.13,0.99l-1.24,7.36c-0.07,0.43,0.02,0.86,0.26,1.23l1.71,2.62c0.27,0.42,0.35,0.93,0.22,1.41l-1.66,5.89    c-0.17,0.6,0,1.25,0.45,1.69l2.84,2.79"
         id="path334" /><linearGradient
         id="SVGID_38_"
         gradientUnits="userSpaceOnUse"
         x1="-3488.7673"
         y1="163.8025"
         x2="-3455.0872"
         y2="163.8025"
         gradientTransform="matrix(-1 0 0 1 -2952.5562 0)"><stop
           offset="0"
           style="stop-color:#000000"
           id="stop336" /><stop
           offset="1"
           style="stop-color:#000000"
           id="stop338" /></linearGradient><path
         class="st41"
         d="M505.22,125.53l9.7,9.89c0.52,0.58,0.59,1.45,0.15,2.1v0c-0.56,0.84-0.28,1.99,0.62,2.47l3.17,1.7    c0.82,0.44,1.15,1.45,0.73,2.28c-0.36,0.72-0.7,1.49-0.66,1.76c0.1,0.54,3.98,4.66,4.37,5.19c0.25,0.34-0.23,2.34-0.62,3.77    c-0.23,0.85,0.22,1.73,1.04,2.05l1.45,0.56c0.66,0.26,1.1,0.89,1.1,1.6v5.48c0,0.33,0.09,0.65,0.27,0.93    c0.56,0.87,1.88,2.83,2.7,3.51c0.86,0.72,0.34,3.96,0.1,5.23c-0.07,0.34-0.02,0.7,0.12,1.02l1.35,3.01    c0.14,0.31,0.18,0.65,0.13,0.99l-1.24,7.36c-0.07,0.43,0.02,0.86,0.26,1.23l1.71,2.62c0.27,0.42,0.35,0.93,0.22,1.41l-1.66,5.89    c-0.17,0.6,0,1.25,0.45,1.69l2.84,2.79"
         id="path341" /><linearGradient
         id="SVGID_39_"
         gradientUnits="userSpaceOnUse"
         x1="-3455.3406"
         y1="156.7915"
         x2="-3422.7722"
         y2="156.7915"
         gradientTransform="matrix(-1 0 0 1 -2952.5562 0)"><stop
           offset="0"
           style="stop-color:#000000"
           id="stop343" /><stop
           offset="1"
           style="stop-color:#000000"
           id="stop345" /></linearGradient><path
         class="st42"
         d="M500.1,118.33l-4.45,2.6c-0.77,0-1.47,0.46-1.77,1.17l-0.87,2.06c-0.19,0.46-0.55,0.82-1.01,1.02l0,0    c-0.6,0.26-1.02,0.8-1.13,1.44l2.68,3.72c-0.16,0.92-3.96-0.27-4.89-0.27h-0.89c-0.55,0-1.07,0.24-1.44,0.65    c-0.98,1.11-2.87,3.31-2.79,3.68c0.05,0.22,0.53,0.74,1.06,1.26c0.81,0.8,0.75,2.13-0.13,2.84c-0.97,0.8-2.14,1.62-2.79,1.61    c-1.25-0.02-1.92,3.58-1.53,3.77c2.5,1.21-1.92,3.25-2.82,4.68c-0.3,0.48-0.38,1.07-0.2,1.61c0.32,0.97,0.77,2.48,0.66,2.74    c-0.12,0.28-1.79,3.03-2.77,4.64c-0.43,0.7-0.36,1.6,0.17,2.23l2.34,2.78c0.51,0.6,0.59,1.45,0.22,2.14l-4.84,2.29    c-0.2,0.38,2.55,2.26,2.62,2.68l0.87,5.04c0.06,0.33,0.03,0.66-0.09,0.98l-1.73,4.8c-0.18,0.51-0.14,1.07,0.11,1.54l1.44,2.73    c0.09,0.18,0.21,0.34,0.35,0.47l1.24,1.22c0.86,0.85,0.74,2.27-0.26,2.95l-0.14,5.85"
         id="path348" /><linearGradient
         id="SVGID_40_"
         gradientUnits="userSpaceOnUse"
         x1="-3341.1843"
         y1="11.4724"
         x2="-3305.009"
         y2="11.4724"
         gradientTransform="matrix(-0.997 -0.0778 -0.0778 0.997 -2829.4749 -116.6868)"><stop
           offset="0"
           style="stop-color:#000000"
           id="stop350" /><stop
           offset="1"
           style="stop-color:#000000"
           id="stop352" /></linearGradient><path
         class="st43"
         d="M500.34,124.62l-3.46-2.64c-0.09-0.07-0.17-0.14-0.24-0.21c-0.39-0.4-1.77-1.76-2.15-1.33    c-0.26,0.29-1.58,0.11-2.66-0.1c-0.89-0.17-1.79,0.22-2.28,0.98l-0.78,1.22c-0.18,0.28-0.41,0.51-0.69,0.69l-3.07,1.93    c-0.43,0.27-0.76,0.69-0.92,1.17l-0.94,2.81c-0.14,0.44-0.42,0.82-0.79,1.09l-2.04,1.48c-0.16,0.12-0.31,0.26-0.44,0.42    l-1.36,1.73c-0.29,0.37-0.45,0.82-0.47,1.28l-0.07,1.81c-0.04,1.04-0.79,1.91-1.81,2.09l0,0c-1.3,0.23-2.1,1.55-1.72,2.81    l0.25,0.84c0.27,0.89-0.05,1.86-0.8,2.41l-2.39,1.77c-0.77,0.57-1.08,1.57-0.78,2.48l0.15,0.45c0.29,0.86,0.03,1.81-0.67,2.39    l-2.43,2.05c-0.9,0.76-1.05,2.09-0.33,3.03l1.47,1.91c0.74,0.96,0.56,2.33-0.39,3.07l-0.23,0.18c-0.68,0.54-0.99,1.42-0.78,2.27    l0.66,2.65c0.23,0.9-0.14,1.85-0.91,2.36l-0.49,0.33c-1.02,0.68-1.28,2.07-0.59,3.08l2.3,3.35c0.4,0.58,0.5,1.31,0.26,1.98    l-1.18,3.37c-0.03,0.08-0.05,0.17-0.07,0.26l-0.84,3.83"
         id="path355" /><linearGradient
         id="SVGID_41_"
         gradientUnits="userSpaceOnUse"
         x1="-3453.0894"
         y1="142.0867"
         x2="-3431.1399"
         y2="142.0867"
         gradientTransform="matrix(-1 0 0 1 -2952.5562 0)"><stop
           offset="0"
           style="stop-color:#000000"
           id="stop357" /><stop
           offset="1"
           style="stop-color:#000000"
           id="stop359" /></linearGradient><path
         class="st44"
         d="M497.85,135.7l-1.59-1.3c-0.59-0.49-1.45-0.46-2.02,0.07l-1.52,1.43c-0.49,0.46-1.22,0.54-1.8,0.21l0,0    c-0.88-0.5-2-0.03-2.24,0.96l-0.7,2.78c-0.08,0.31-0.58,0.96-1.66,1.09c-0.97,0.12-1.78,0.8-2.06,1.74l-0.43,1.45    c-0.15,0.49-1.35,0.8-1.89,1.51c-0.76,0.99-0.86,2.33-0.26,3.41l0.6,1.08"
         id="path362" /><linearGradient
         id="SVGID_42_"
         gradientUnits="userSpaceOnUse"
         x1="-3477.7542"
         y1="147.0487"
         x2="-3447.927"
         y2="147.0487"
         gradientTransform="matrix(-1 0 0 1 -2952.5562 0)"><stop
           offset="0"
           style="stop-color:#000000"
           id="stop364" /><stop
           offset="1"
           style="stop-color:#000000"
           id="stop366" /></linearGradient><path
         class="st45"
         d="M503.1,120.3l-1.91,2.67c-0.33,0.46-0.4,1.05-0.19,1.57l0.38,0.94c0.27,0.66,0.08,1.42-0.47,1.88l-1.86,1.54    c-0.91,0.76-0.75,2.2,0.31,2.73l0.42,0.21c0.98,0.49,1.21,1.79,0.46,2.59l-0.99,1.06c-0.65,0.69-0.58,1.79,0.15,2.39l0.25,0.21    c0.59,0.48,0.77,1.3,0.44,1.98c-0.78,1.61-2.08,4.38-2.04,4.76c0.03,0.33,1.72,0.99,3.03,1.46c0.82,0.29,1.27,1.17,1.03,2.01    c-0.51,1.72-1.15,4.36-0.35,4.6c0.73,0.22,3.28,0.17,5.16,0.1c1.08-0.04,1.9,0.96,1.66,2.01l-0.62,2.68    c-0.24,1.03,0.54,2.02,1.6,2.02h3.38c0.97,0,1.73,0.84,1.64,1.8l-0.34,3.49c-0.08,0.79,0.42,1.52,1.19,1.74l4.11,1.16    c0.5,0.14,0.9,0.51,1.09,0.99l1.89,4.91"
         id="path369" /><linearGradient
         id="SVGID_43_"
         gradientUnits="userSpaceOnUse"
         x1="-3464.3159"
         y1="143.0253"
         x2="-3441.0557"
         y2="143.0253"
         gradientTransform="matrix(-1 0 0 1 -2952.5562 0)"><stop
           offset="0"
           style="stop-color:#000000"
           id="stop371" /><stop
           offset="1"
           style="stop-color:#000000"
           id="stop373" /></linearGradient><path
         class="st46"
         d="M496.23,120.3l-1.91,2.67c-0.33,0.46-0.4,1.05-0.19,1.57l0.38,0.94c0.27,0.66,0.08,1.42-0.47,1.88    l-1.86,1.54c-0.91,0.76-0.75,2.2,0.31,2.73l0.42,0.21c0.98,0.49,1.21,1.79,0.46,2.59l-0.99,1.06c-0.65,0.69-0.58,1.79,0.15,2.39    l0.25,0.21c0.59,0.48,0.77,1.3,0.44,1.98c-0.78,1.61-2.08,4.38-2.04,4.76c0.03,0.33,1.72,0.99,3.03,1.46    c0.82,0.29,1.27,1.17,1.03,2.01c-0.51,1.72-1.15,4.36-0.35,4.6c0.73,0.22,3.28,0.17,5.16,0.1c1.08-0.04,1.9,0.96,1.66,2.01    l-0.62,2.68c-0.24,1.03,0.54,2.02,1.6,2.02l3.04,1.35c0.97,0,3.44,3.74,3.35,4.7"
         id="path376" /><linearGradient
         id="SVGID_44_"
         gradientUnits="userSpaceOnUse"
         x1="-3489.7517"
         y1="156.7301"
         x2="-3439.0295"
         y2="156.7301"
         gradientTransform="matrix(-1 0 0 1 -2952.5562 0)"><stop
           offset="0"
           style="stop-color:#000000"
           id="stop378" /><stop
           offset="1"
           style="stop-color:#000000"
           id="stop380" /></linearGradient><path
         class="st47"
         d="M489.16,120.92l6.72-3.31c0.32-0.49,3.13-2.72,5.88-2.72l1.91,1.23c1.16-0.24,2.93-1.15,3.24,0    c0.17,0.63,1.28-1.16,1.78-1.18c0.04,0,0.08,0,0.12,0c1.39-0.04,2.48,1.19,2.28,2.56l-0.56,3.84c-0.14,0.98,0.37,1.93,1.26,2.35    l0.66,0.31c0.96,0.45,1.48,1.52,1.23,2.55l-0.35,1.44c-0.21,0.87,0.12,1.79,0.84,2.32l2.2,1.63c0.85,0.63,1.14,1.76,0.71,2.72    l-0.88,1.95c-0.34,0.76-1.08,3.42-0.56,4.07l5.95,4.65c0.54,0.68,0.64,1.61,0.25,2.39l-1.07,2.15c-0.38,0.76-0.3,1.67,0.22,2.35    c1.1,1.45,2.97,3.78,3.47,3.61c0.51-0.18,1.11,1.32,1.42,2.2c0.14,0.4,0.39,0.76,0.73,1.02l3.68,2.91    c0.24,0.19,0.44,0.42,0.58,0.69l1.88,3.47c0.09,0.16,0.15,0.33,0.2,0.5l1.18,4.52c0.03,0.11,0.05,0.23,0.06,0.35l0.33,3.41    c0.07,0.71-0.21,1.42-0.75,1.89l-1.62,1.43c-1.21,1.06-0.93,3.02,0.53,3.7l0,0c1.36,0.64,1.72,2.42,0.7,3.53l-1.21,1.32    c-0.81,0.88-0.77,2.24,0.07,3.09l1.24,1.24c0.5,0.51,0.74,1.22,0.63,1.93l-0.87,5.53"
         id="path383" /></g></g><g
     id="_x31_8" /><g
     id="_x31_7" /><g
     id="_x31_6" /><g
     id="_x31_5" /><g
     id="_x31_4" /><g
     id="_x31_3" /><g
     id="_x31_2" /><g
     id="_x31_1" /><g
     id="_x31_0" /><g
     id="_x39_" /><g
     id="_x38_" /><g
     id="_x37_" /><g
     id="_x36_" /><g
     id="_x35_" /><g
     id="_x34_" /><g
     id="_x33_" /><g
     id="_x32__1_" /><g
     id="_x31_" /></svg>