<?xml version="1.0" encoding="UTF-8" standalone="no"?>
<svg
   xmlns:dc="http://purl.org/dc/elements/1.1/"
   xmlns:cc="http://creativecommons.org/ns#"
   xmlns:rdf="http://www.w3.org/1999/02/22-rdf-syntax-ns#"
   xmlns:svg="http://www.w3.org/2000/svg"
   xmlns="http://www.w3.org/2000/svg"
   xmlns:sodipodi="http://sodipodi.sourceforge.net/DTD/sodipodi-0.dtd"
   xmlns:inkscape="http://www.inkscape.org/namespaces/inkscape"
   id="b6117b06-2b45-45bc-b789-4a82ab6612dd"
   data-name="Layer 1"
   width="1139.17088"
   height="654.54324"
   viewBox="0 0 1139.17088 654.54324"
   version="1.1"
   sodipodi:docname="progressive_app.svg"
   inkscape:version="0.92.1 r15371">
  <metadata
     id="metadata6756">
    <rdf:RDF>
      <cc:Work
         rdf:about="">
        <dc:format>image/svg+xml</dc:format>
        <dc:type
           rdf:resource="http://purl.org/dc/dcmitype/StillImage" />
      </cc:Work>
    </rdf:RDF>
  </metadata>
  <defs
     id="defs6754" />
  <sodipodi:namedview
     pagecolor="#ffffff"
     bordercolor="#666666"
     borderopacity="1"
     objecttolerance="10"
     gridtolerance="10"
     guidetolerance="10"
     inkscape:pageopacity="0"
     inkscape:pageshadow="2"
     inkscape:window-width="1920"
     inkscape:window-height="997"
     id="namedview6752"
     showgrid="false"
     inkscape:zoom="1.1578596"
     inkscape:cx="569.58545"
     inkscape:cy="292.7251"
     inkscape:window-x="0"
     inkscape:window-y="0"
     inkscape:window-maximized="1"
     inkscape:current-layer="b6117b06-2b45-45bc-b789-4a82ab6612dd" />
  <title
     id="title6667">progressive_app</title>
  <circle
     cx="246.82682"
     cy="521.76476"
     r="59.24334"
     fill="#f2f2f2"
     id="circle6669" />
  <circle
     cx="256.45989"
     cy="513.095"
     r="59.24334"
     fill="#6c63ff"
     id="circle6671"
     style="fill:#2ca242;fill-opacity:1" />
  <rect
     x="304.17137"
     y="447.54324"
     width="732.99951"
     height="2"
     fill="#3f3d56"
     id="rect6673" />
  <path
     d="M714.20735,141.38055H454.03775v-5.36232h-117.971v5.36232H74.82467a17.5985,17.5985,0,0,0-17.59852,17.59851V515.23125a17.59856,17.59856,0,0,0,17.59852,17.59858H714.20735a17.59856,17.59856,0,0,0,17.59852-17.59858V158.97906A17.5985,17.5985,0,0,0,714.20735,141.38055Z"
     transform="translate(-30.41456 -122.72838)"
     fill="#3f3d56"
     id="path6675" />
  <rect
     x="50.4058"
     y="49.75362"
     width="627.3913"
     height="353.91304"
     fill="#6c63ff"
     id="rect6677"
     style="opacity:1;fill:#2ca242;fill-opacity:1" />
  <circle
     cx="363.56522"
     cy="33.66667"
     r="6.43478"
     fill="#6c63ff"
     id="circle6679"
     style="fill:#2ca242;fill-opacity:1" />
  <polygon
     points="498.374 403.667 50.406 403.667 50.406 49.754 498.374 403.667"
     opacity="0.1"
     id="polygon6681" />
  <circle
     cx="148.57375"
     cy="316.87641"
     r="60.3068"
     fill="#f2f2f2"
     id="circle6683" />
  <rect
     x="509.95272"
     y="240.62175"
     width="58.6052"
     height="12.24586"
     fill="#3f3d56"
     id="rect6685" />
  <rect
     x="439.10165"
     y="145.27896"
     width="200.30733"
     height="5.24823"
     fill="#3f3d56"
     id="rect6687" />
  <rect
     x="439.10165"
     y="161.89834"
     width="200.30733"
     height="5.24823"
     fill="#3f3d56"
     id="rect6689" />
  <rect
     x="439.10165"
     y="178.51773"
     width="200.30733"
     height="5.24823"
     fill="#3f3d56"
     id="rect6691" />
  <rect
     x="439.10165"
     y="195.13711"
     width="200.30733"
     height="5.24823"
     fill="#3f3d56"
     id="rect6693" />
  <rect
     x="439.10165"
     y="211.7565"
     width="200.30733"
     height="5.24823"
     fill="#3f3d56"
     id="rect6695" />
  <rect
     x="614.91726"
     y="56.9338"
     width="24.49173"
     height="24.49173"
     fill="#f2f2f2"
     id="rect6697" />
  <path
     d="M681.1947,215.52507h-29.74v-29.74h29.74Zm-28.44691-1.293h27.15387V187.07816H652.74779Z"
     transform="translate(-30.41456 -122.72838)"
     fill="#3f3d56"
     id="path6699" />
  <path
     d="M749.42165,519.96024H688.19234v-4.41153a.87468.87468,0,0,0-.87471-.87471h-20.9929a.87468.87468,0,0,0-.87471.87471v4.41153H652.32945v-4.41153a.87467.87467,0,0,0-.8747-.87471H630.46184a.87468.87468,0,0,0-.8747.87471v4.41153H616.46657v-4.41153a.87468.87468,0,0,0-.8747-.87471H594.599a.87468.87468,0,0,0-.87471.87471v4.41153H580.60369v-4.41153a.87468.87468,0,0,0-.87471-.87471H558.73607a.87468.87468,0,0,0-.8747.87471v4.41153H544.7408v-4.41153a.87468.87468,0,0,0-.8747-.87471H522.87319a.87467.87467,0,0,0-.8747.87471v4.41153H508.87792v-4.41153a.87468.87468,0,0,0-.87471-.87471h-20.9929a.87468.87468,0,0,0-.87471.87471v4.41153H473.015v-4.41153a.87468.87468,0,0,0-.8747-.87471H307.69588a.87468.87468,0,0,0-.8747.87471v4.41153H293.70061v-4.41153a.87468.87468,0,0,0-.8747-.87471H271.833a.87467.87467,0,0,0-.8747.87471v4.41153H257.83773v-4.41153a.87468.87468,0,0,0-.87471-.87471h-20.9929a.87468.87468,0,0,0-.87471.87471v4.41153H221.97484v-4.41153a.87467.87467,0,0,0-.8747-.87471H200.10723a.87468.87468,0,0,0-.8747.87471v4.41153H186.112v-4.41153a.87468.87468,0,0,0-.8747-.87471H164.24435a.87468.87468,0,0,0-.87471.87471v4.41153H150.24908v-4.41153a.87468.87468,0,0,0-.87471-.87471H128.38146a.87468.87468,0,0,0-.8747.87471v4.41153H114.38619v-4.41153a.87468.87468,0,0,0-.8747-.87471H92.51858a.87467.87467,0,0,0-.8747.87471v4.41153H51.40747a20.99293,20.99293,0,0,0-20.99291,20.99291v9.4925A20.99291,20.99291,0,0,0,51.40747,571.4385H749.42165a20.9929,20.9929,0,0,0,20.99291-20.99285v-9.4925A20.99292,20.99292,0,0,0,749.42165,519.96024Z"
     transform="translate(-30.41456 -122.72838)"
     fill="#3f3d56"
     id="path6701" />
  <path
     d="M193.58593,477.27162a76,76,0,1,1,76-76A76.08614,76.08614,0,0,1,193.58593,477.27162Zm0-150a74,74,0,1,0,74,74A74.08385,74.08385,0,0,0,193.58593,327.27162Z"
     transform="translate(-30.41456 -122.72838)"
     fill="#3f3d56"
     id="path6703" />
  <rect
     x="586.17137"
     y="32.54324"
     width="254.99951"
     height="2"
     fill="#3f3d56"
     id="rect6705" />
  <rect
     x="406.17137"
     y="560.54324"
     width="732.99951"
     height="2"
     fill="#3f3d56"
     id="rect6707" />
  <rect
     x="192.67161"
     y="652.54324"
     width="254.99951"
     height="2"
     fill="#3f3d56"
     id="rect6709" />
  <rect
     x="471"
     y="550"
     width="28"
     height="28"
     fill="#6c63ff"
     id="rect6711"
     style="fill:#2ca242;fill-opacity:1" />
  <path
     d="M546.41456,684.72838h-34v-34h34Zm-32.52174-1.47826H544.9363V652.20664H513.89282Z"
     transform="translate(-30.41456 -122.72838)"
     fill="#3f3d56"
     id="path6713" />
  <rect
     x="796"
     y="22"
     width="28"
     height="28"
     fill="#6c63ff"
     id="rect6715"
     style="fill:#2ca242;fill-opacity:1" />
  <path
     d="M871.41456,156.72838h-34v-34h34Zm-32.52174-1.47826H869.9363V124.20664H838.89282Z"
     transform="translate(-30.41456 -122.72838)"
     fill="#3f3d56"
     id="path6717" />
  <rect
     x="1078"
     y="550"
     width="28"
     height="28"
     fill="#6c63ff"
     id="rect6719"
     style="fill:#2ca242;fill-opacity:1" />
  <path
     d="M1153.41456,684.72838h-34v-34h34Zm-32.52174-1.47826h31.04348V652.20664h-31.04348Z"
     transform="translate(-30.41456 -122.72838)"
     fill="#3f3d56"
     id="path6721" />
  <path
     d="M1087.58593,354.6866h-2.37862V289.525a37.71374,37.71374,0,0,0-37.71385-37.71377H909.44A37.71373,37.71373,0,0,0,871.72613,289.525V647.00639A37.71374,37.71374,0,0,0,909.44,684.72017h138.05348a37.71374,37.71374,0,0,0,37.71385-37.71378V401.06969h2.37862Z"
     transform="translate(-30.41456 -122.72838)"
     fill="#3f3d56"
     id="path6723" />
  <path
     d="M1077.176,291.74159v356.96a28.16523,28.16523,0,0,1-28.16016,28.17H910.296a28.16511,28.16511,0,0,1-28.16-28.17v-356.96a28.163,28.163,0,0,1,28.16-28.16h16.83a13.3792,13.3792,0,0,0,12.39,18.43h79.09a13.37908,13.37908,0,0,0,12.38995-18.43h18.02A28.16308,28.16308,0,0,1,1077.176,291.74159Z"
     transform="translate(-30.41456 -122.72838)"
     fill="#6c63ff"
     id="path6725"
     style="fill:#2ca242;fill-opacity:1" />
  <rect
     x="928.57968"
     y="376.21769"
     width="41.32357"
     height="12.24586"
     fill="#3f3d56"
     id="rect6727" />
  <rect
     x="878.62133"
     y="280.8749"
     width="141.24028"
     height="5.24823"
     fill="#3f3d56"
     id="rect6729" />
  <rect
     x="878.62133"
     y="297.49429"
     width="141.24028"
     height="5.24823"
     fill="#3f3d56"
     id="rect6731" />
  <rect
     x="878.62133"
     y="314.11367"
     width="141.24028"
     height="5.24823"
     fill="#3f3d56"
     id="rect6733" />
  <rect
     x="878.62133"
     y="330.73306"
     width="141.24028"
     height="5.24823"
     fill="#3f3d56"
     id="rect6735" />
  <rect
     x="878.62133"
     y="347.35244"
     width="141.24028"
     height="5.24823"
     fill="#3f3d56"
     id="rect6737" />
  <rect
     x="929.68352"
     y="211.17873"
     width="24.49173"
     height="24.49173"
     fill="#f2f2f2"
     id="rect6739" />
  <path
     d="M969.47386,340.03163v29.74h29.74v-29.74Zm28.45,28.45h-27.16v-27.16h27.16Z"
     transform="translate(-30.41456 -122.72838)"
     fill="#3f3d56"
     id="path6741" />
  <path
     d="M1077.176,610.58162v38.12a28.16523,28.16523,0,0,1-28.16016,28.17H910.296a28.16511,28.16511,0,0,1-28.16-28.17v-192.21l116.87,92.33,2,1.58,21.74,17.17,2.03,1.61Z"
     transform="translate(-30.41456 -122.72838)"
     opacity="0.1"
     id="path6743" />
  <circle
     cx="937.24147"
     cy="498.70691"
     r="43.86783"
     fill="#f2f2f2"
     id="circle6745" />
  <path
     d="M350.58593,777.27162a87,87,0,1,1,87-87A87.09858,87.09858,0,0,1,350.58593,777.27162Zm0-172a85,85,0,1,0,85,85A85.09629,85.09629,0,0,0,350.58593,605.27162Z"
     transform="translate(-30.41456 -122.72838)"
     fill="#3f3d56"
     id="path6747" />
  <path
     d="M980.58593,655.27162a55,55,0,1,1,55-55A55.06223,55.06223,0,0,1,980.58593,655.27162Zm0-108a53,53,0,1,0,53,53A53.05963,53.05963,0,0,0,980.58593,547.27162Z"
     transform="translate(-30.41456 -122.72838)"
     fill="#3f3d56"
     id="path6749" />
</svg>
