<?xml version="1.0" encoding="utf-8"?>
<!-- Generator: Adobe Illustrator 23.0.0, SVG Export Plug-In . SVG Version: 6.00 Build 0)  -->
<svg version="1.1" xmlns="http://www.w3.org/2000/svg" xmlns:xlink="http://www.w3.org/1999/xlink" x="0px" y="0px"
	 viewBox="0 0 650 650" style="enable-background:new 0 0 650 650;" xml:space="preserve">
<style type="text/css">
	.st0{fill:url(#SVGID_1_);}
	.st1{fill:url(#SVGID_2_);}
	.st2{fill:none;stroke:url(#SVGID_3_);stroke-width:0.9278;stroke-miterlimit:10;}
	.st3{fill:url(#SVGID_4_);}
	.st4{fill:none;stroke:url(#SVGID_5_);stroke-miterlimit:10;}
	.st5{fill:url(#SVGID_6_);}
	.st6{fill:url(#SVGID_7_);}
	.st7{fill:url(#SVGID_8_);}
	.st8{fill:url(#SVGID_9_);}
	.st9{fill:url(#SVGID_10_);}
	.st10{fill:url(#SVGID_11_);}
	.st11{fill:url(#SVGID_12_);}
	.st12{fill:url(#SVGID_13_);}
	.st13{fill:url(#SVGID_14_);}
	.st14{fill:url(#SVGID_15_);}
	.st15{fill:url(#SVGID_16_);}
	.st16{fill:url(#SVGID_17_);}
	.st17{fill:none;stroke:url(#SVGID_18_);stroke-width:1.5535;stroke-miterlimit:10;}
	.st18{fill:url(#SVGID_19_);}
	.st19{fill:url(#SVGID_20_);}
	.st20{fill:url(#SVGID_21_);}
	.st21{fill:url(#SVGID_22_);}
	.st22{fill:url(#SVGID_23_);stroke:url(#SVGID_24_);stroke-miterlimit:10;}
	.st23{fill:url(#SVGID_25_);}
	.st24{fill:#FFFFFF;}
	.st25{fill:url(#SVGID_26_);}
	.st26{fill:url(#SVGID_27_);}
	.st27{fill:url(#SVGID_28_);}
	.st28{fill:url(#SVGID_29_);}
	.st29{fill:url(#SVGID_30_);}
	.st30{fill:url(#SVGID_31_);}
	.st31{fill:url(#SVGID_32_);}
	.st32{fill:url(#SVGID_33_);}
	.st33{fill:url(#SVGID_34_);}
	.st34{fill:url(#SVGID_35_);}
	.st35{fill:url(#SVGID_36_);}
	.st36{fill:url(#SVGID_37_);}
	.st37{fill:url(#SVGID_38_);}
	.st38{fill:url(#SVGID_39_);}
	.st39{fill:none;stroke:#17FF44;stroke-width:1.9485;stroke-miterlimit:10;}
	.st40{fill:url(#SVGID_40_);}
	.st41{fill:url(#SVGID_41_);}
	.st42{fill:none;stroke:#FFFFFF;stroke-linecap:round;stroke-miterlimit:10;}
	.st43{fill:none;stroke:#FFFFFF;stroke-width:0.7637;stroke-miterlimit:10;}
	.st44{fill:url(#SVGID_42_);}
	.st45{fill:url(#SVGID_43_);}
	.st46{fill:none;stroke:#D6D9E8;stroke-width:5.4853;stroke-miterlimit:10;}
	.st47{fill:url(#SVGID_44_);}
	.st48{fill:url(#SVGID_45_);}
	.st49{fill:url(#SVGID_46_);}
	.st50{fill:url(#SVGID_47_);}
	.st51{fill:url(#SVGID_48_);}
	.st52{fill:url(#SVGID_49_);}
	.st53{fill:url(#SVGID_50_);}
	.st54{fill:url(#SVGID_51_);}
	.st55{fill:url(#SVGID_52_);}
	.st56{fill:url(#SVGID_53_);}
	.st57{fill:url(#SVGID_54_);}
	.st58{fill:url(#SVGID_55_);}
	.st59{fill:url(#SVGID_56_);}
	.st60{fill:url(#SVGID_57_);}
	.st61{fill:#211A49;}
	.st62{fill:none;stroke:#FFFFFF;stroke-miterlimit:10;}
</style>
<g id="_x33_2">
</g>
<g id="_x33_1">
</g>
<g id="_x33_0">
</g>
<g id="_x32_9">
</g>
<g id="_x32_8">
</g>
<g id="_x32_7">
</g>
<g id="_x32_6">
</g>
<g id="_x32_5">
</g>
<g id="_x32_4">
</g>
<g id="_x32_3">
</g>
<g id="_x32_2">
</g>
<g id="_x32_1">
	<g>
		<linearGradient id="SVGID_1_" gradientUnits="userSpaceOnUse" x1="9.348" y1="348.1725" x2="635.856" y2="348.1725">
			<stop  offset="0" style="stop-color:#F6F6F6"/>
			<stop  offset="0.9901" style="stop-color:#F5F7F8"/>
		</linearGradient>
		<path class="st0" d="M614.46,360.66C559.44,248.19,402.09,83.45,197.62,83.03c-213.36-0.44-234,211.17-119,269.98
			s-53.15,132.14,67.06,205.81c121.66,74.56,381.67,67.56,445.67,9.56S638.23,409.25,614.46,360.66z"/>
		<g>
			<linearGradient id="SVGID_2_" gradientUnits="userSpaceOnUse" x1="95.6208" y1="505.5144" x2="71.0854" y2="319.3347">
				<stop  offset="0" style="stop-color:#3BB273"/>
				<stop  offset="0.9901" style="stop-color:#3BB273;stop-opacity:0.5"/>
			</linearGradient>
			<path class="st1" d="M95.9,506.84c0,0,27.01-30.06,24.14-41.91c-2.87-11.85,13.89-26.24,14.22-43.5
				c0.37-19.55-10.07-14.32-13.69-22.68c-5.36-12.39,6.57-23.36-11.46-28.1c-12.31-3.24-20.97,3.08-19.84-12.15
				c1.12-15.23-4.39-34.08-14.25-40.92c-14.09-9.78-42.76-10.54-33.1,9.16c10.15,20.71,1.2,54.81-1.16,64.15
				C15.76,489.59,95.9,506.84,95.9,506.84z"/>
			<linearGradient id="SVGID_3_" gradientUnits="userSpaceOnUse" x1="94.3849" y1="500.7173" x2="72.8034" y2="336.9522">
				<stop  offset="0" style="stop-color:#000000"/>
				<stop  offset="0.9901" style="stop-color:#000000"/>
			</linearGradient>
			<path class="st2" d="M65.77,337.88c3.09,25.48,35.05,66.2,20.57,93.41s7.47,69.34,7.47,69.34"/>
			<g>
				<linearGradient id="SVGID_4_" gradientUnits="userSpaceOnUse" x1="106.9634" y1="437.0294" x2="198.0075" y2="416.1086">
					<stop  offset="0.1683" style="stop-color:#3BB273"/>
					<stop  offset="1" style="stop-color:#BDE5D0"/>
				</linearGradient>
				<path class="st3" d="M177.74,449.91c-17.54,6.2,1.45,28.89-17.73,39.11c-19.17,10.22-43.77,15.4-44.9,10.44
					c-0.08-0.33-1.11-3.62-2.2-8.43c-0.25-1.11-0.5-2.31-0.75-3.57c-0.06-0.35-0.13-0.71-0.2-1.07c-0.65-3.56-1.21-7.54-1.45-11.61
					c-0.01-0.12-0.01-0.24-0.02-0.36c-0.09-1.55-0.12-3.11-0.09-4.66c0.03-1.5,0.11-2.98,0.27-4.43c0.57-5.52,2.15-10.61,5.38-14.26
					c0.82-0.94,1.75-1.78,2.8-2.51c13.33-9.27,18.65-4.77,18.55-18.47c-0.18-23.48,6.51-26.99,14.38-24.67s14.02,2.97,15.17-5.71
					c1.16-8.68-5.95-47.36,11.92-47.29c30.96,0.1,15.31,39.62,12.18,46.03c-7.5,15.37,8.1,17.78,11.81,28.98
					C206.56,438.63,195.27,443.71,177.74,449.91z"/>
				<linearGradient id="SVGID_5_" gradientUnits="userSpaceOnUse" x1="111.1952" y1="453.2368" x2="180.348" y2="453.4736">
					<stop  offset="0" style="stop-color:#1D1D1B"/>
					<stop  offset="0.9901" style="stop-color:#3C3C3B"/>
				</linearGradient>
				<path class="st4" d="M111.67,533.2c0,0-4.71-43.22,28.23-67.44c14.88-10.94,42.54-50.01,40.04-92.28"/>
			</g>
			<g>
				<g>
					<linearGradient id="SVGID_6_" gradientUnits="userSpaceOnUse" x1="93.8882" y1="440.8451" x2="65.9693" y2="413.4118">
						<stop  offset="0" style="stop-color:#000000"/>
						<stop  offset="1" style="stop-color:#3BB273"/>
					</linearGradient>
					<path class="st5" d="M65.5,412.99c4.09-6.94,33.51,21.68,28.36,27.96C88.7,447.24,61.6,419.6,65.5,412.99z"/>
					<linearGradient id="SVGID_7_" gradientUnits="userSpaceOnUse" x1="93.0022" y1="463.9001" x2="60.5134" y2="452.5892">
						<stop  offset="0" style="stop-color:#000000"/>
						<stop  offset="1" style="stop-color:#3BB273"/>
					</linearGradient>
					<path class="st6" d="M58.07,452.02c0.59-8.08,36.1,3.54,34.28,11.52C90.53,471.53,57.51,459.72,58.07,452.02z"/>
					<linearGradient id="SVGID_8_" gradientUnits="userSpaceOnUse" x1="95.424" y1="440.774" x2="124.9688" y2="417.5256">
						<stop  offset="0" style="stop-color:#000000"/>
						<stop  offset="1" style="stop-color:#3BB273"/>
					</linearGradient>
					<path class="st7" d="M125.11,416.36c6.29,4.93-24.76,31.67-30.3,25.74C89.27,436.17,119.11,411.66,125.11,416.36z"/>
					<linearGradient id="SVGID_9_" gradientUnits="userSpaceOnUse" x1="93.2721" y1="463.9411" x2="121.9508" y2="450.2043">
						<stop  offset="0" style="stop-color:#000000"/>
						<stop  offset="1" style="stop-color:#3BB273"/>
					</linearGradient>
					<path class="st8" d="M121.85,450.06c5.29,5.97-24.7,21-29.2,14.23C88.15,457.51,116.81,444.36,121.85,450.06z"/>
					<linearGradient id="SVGID_10_" gradientUnits="userSpaceOnUse" x1="98.3922" y1="485.52" x2="60.2095" y2="480.9573">
						<stop  offset="0" style="stop-color:#000000"/>
						<stop  offset="1" style="stop-color:#3BB273"/>
					</linearGradient>
					<path class="st9" d="M60.43,481.07c-1.55-7.42,37.59-3.15,37.93,4.49C98.69,493.19,61.91,488.13,60.43,481.07z"/>
					<linearGradient id="SVGID_11_" gradientUnits="userSpaceOnUse" x1="94.1524" y1="488.201" x2="120.239" y2="472.2592">
						<stop  offset="0" style="stop-color:#000000"/>
						<stop  offset="1" style="stop-color:#3BB273"/>
					</linearGradient>
					<path class="st10" d="M119.94,472.43c4.06,6.86-23.99,23.99-27.25,16.51C89.43,481.46,116.08,465.89,119.94,472.43z"/>
					<linearGradient id="SVGID_12_" gradientUnits="userSpaceOnUse" x1="103.9365" y1="380.6343" x2="95.0099" y2="417.1341">
						<stop  offset="0" style="stop-color:#000000"/>
						<stop  offset="1" style="stop-color:#3BB273"/>
					</linearGradient>
					<path class="st11" d="M104.47,379.62c7.9,0.58-2.32,40.39-10.13,38.55S96.94,379.07,104.47,379.62z"/>
				</g>
				
					<linearGradient id="SVGID_13_" gradientUnits="userSpaceOnUse" x1="1567.7234" y1="830.2358" x2="1579.5142" y2="830.2358" gradientTransform="matrix(0.7025 -0.7117 0.7117 0.7025 -1616.308 964.4179)">
					<stop  offset="0" style="stop-color:#3BB273"/>
					<stop  offset="0.0224" style="stop-color:#41B477"/>
					<stop  offset="0.2793" style="stop-color:#80CBA7"/>
					<stop  offset="0.5135" style="stop-color:#B1DECC"/>
					<stop  offset="0.7175" style="stop-color:#D5EBE7"/>
					<stop  offset="0.8833" style="stop-color:#EBF3F7"/>
					<stop  offset="0.9901" style="stop-color:#F3F6FD"/>
				</linearGradient>
				<path class="st12" d="M68.46,411.1c4.09-6.94,33.51,21.68,28.36,27.96C91.67,445.35,64.56,417.71,68.46,411.1z"/>
				
					<linearGradient id="SVGID_14_" gradientUnits="userSpaceOnUse" x1="2109.7131" y1="1653.4529" x2="2121.6182" y2="1653.4529" gradientTransform="matrix(0.3054 -0.9522 0.9522 0.3054 -2144.1763 1969.3219)">
					<stop  offset="0" style="stop-color:#3BB273"/>
					<stop  offset="0.0224" style="stop-color:#41B477"/>
					<stop  offset="0.2793" style="stop-color:#80CBA7"/>
					<stop  offset="0.5135" style="stop-color:#B1DECC"/>
					<stop  offset="0.7175" style="stop-color:#D5EBE7"/>
					<stop  offset="0.8833" style="stop-color:#EBF3F7"/>
					<stop  offset="0.9901" style="stop-color:#F3F6FD"/>
				</linearGradient>
				<path class="st13" d="M60.43,450.37c0.59-8.08,36.1,3.54,34.28,11.52S59.87,458.07,60.43,450.37z"/>
				
					<linearGradient id="SVGID_15_" gradientUnits="userSpaceOnUse" x1="-1396.3544" y1="1350.207" x2="-1384.5479" y2="1350.207" gradientTransform="matrix(0.6298 0.7767 -0.7767 0.6298 2033.339 654.1669)">
					<stop  offset="0" style="stop-color:#3BB273"/>
					<stop  offset="0.0224" style="stop-color:#41B477"/>
					<stop  offset="0.2793" style="stop-color:#80CBA7"/>
					<stop  offset="0.5135" style="stop-color:#B1DECC"/>
					<stop  offset="0.7175" style="stop-color:#D5EBE7"/>
					<stop  offset="0.8833" style="stop-color:#EBF3F7"/>
					<stop  offset="0.9901" style="stop-color:#F3F6FD"/>
				</linearGradient>
				<path class="st14" d="M126.3,414.58c6.29,4.93-24.76,31.67-30.3,25.74C90.47,434.4,120.31,409.89,126.3,414.58z"/>
				<g>
					<linearGradient id="SVGID_16_" gradientUnits="userSpaceOnUse" x1="110.4202" y1="462.721" x2="122.7216" y2="450.0959">
						<stop  offset="9.900990e-03" style="stop-color:#BBC0D9"/>
						<stop  offset="1" style="stop-color:#D6DBF8"/>
					</linearGradient>
					<path class="st15" d="M111.32,463.8c0.55-5.42,2.06-10.42,5.17-14.01c3.75-0.75,6.9-0.6,8.28,0.95
						C127.71,454.06,119.75,460.18,111.32,463.8z"/>
				</g>
				
					<linearGradient id="SVGID_17_" gradientUnits="userSpaceOnUse" x1="-1535.114" y1="1583.5756" x2="-1523.0227" y2="1583.5756" gradientTransform="matrix(0.5012 0.8654 -0.7697 0.4457 2091.9666 1069.8899)">
					<stop  offset="0" style="stop-color:#3BB273"/>
					<stop  offset="0.0224" style="stop-color:#41B477"/>
					<stop  offset="0.2793" style="stop-color:#80CBA7"/>
					<stop  offset="0.5135" style="stop-color:#B1DECC"/>
					<stop  offset="0.7175" style="stop-color:#D5EBE7"/>
					<stop  offset="0.8833" style="stop-color:#EBF3F7"/>
					<stop  offset="0.9901" style="stop-color:#F3F6FD"/>
				</linearGradient>
				<path class="st16" d="M123.33,448.79c5.29,5.97-24.7,21-29.2,14.23C89.63,456.24,118.3,443.09,123.33,448.79z"/>
				
					<linearGradient id="SVGID_18_" gradientUnits="userSpaceOnUse" x1="571.4104" y1="406.4734" x2="588.7869" y2="406.4734" gradientTransform="matrix(0.9728 -0.2315 0.2315 0.9728 -558.3516 197.0708)">
					<stop  offset="0" style="stop-color:#E0E4EB"/>
					<stop  offset="0.9901" style="stop-color:#F3F6FD"/>
				</linearGradient>
				<path class="st17" d="M96.45,408.78c0,0,0.9,20.68-1.84,38.73c-2.74,18.05,4.17,48.6,15.42,58.36"/>
				
					<linearGradient id="SVGID_19_" gradientUnits="userSpaceOnUse" x1="2444.6201" y1="2174.709" x2="2456.9824" y2="2174.709" gradientTransform="matrix(0.0399 -0.9308 1.0044 0.043 -2202.7676 2673.2424)">
					<stop  offset="0" style="stop-color:#3BB273"/>
					<stop  offset="0.0224" style="stop-color:#41B477"/>
					<stop  offset="0.2793" style="stop-color:#80CBA7"/>
					<stop  offset="0.5135" style="stop-color:#B1DECC"/>
					<stop  offset="0.7175" style="stop-color:#D5EBE7"/>
					<stop  offset="0.8833" style="stop-color:#EBF3F7"/>
					<stop  offset="0.9901" style="stop-color:#F3F6FD"/>
				</linearGradient>
				<path class="st18" d="M60.43,479.65c-1.55-7.42,37.59-3.15,37.93,4.49C98.69,491.77,61.91,486.72,60.43,479.65z"/>
				<linearGradient id="SVGID_20_" gradientUnits="userSpaceOnUse" x1="110.6968" y1="482.5373" x2="122.9771" y2="468.9196">
					<stop  offset="9.900990e-03" style="stop-color:#BBC0D9"/>
					<stop  offset="1" style="stop-color:#D6DBF8"/>
				</linearGradient>
				<path class="st19" d="M112.76,485.53c-0.06-0.34-0.12-0.7-0.19-1.05c-0.62-3.5-1.16-7.41-1.39-11.4
					c-0.01-0.12-0.01-0.24-0.02-0.35c6.39-3.54,13.21-5.32,15.02-2.26C128.45,474.32,120.63,481.39,112.76,485.53z"/>
				
					<linearGradient id="SVGID_21_" gradientUnits="userSpaceOnUse" x1="-1589.3218" y1="1941.6536" x2="-1575.9384" y2="1941.6536" gradientTransform="matrix(0.3481 0.9375 -0.7417 0.2754 2100.6003 1420.8447)">
					<stop  offset="0" style="stop-color:#3BB273"/>
					<stop  offset="0.0224" style="stop-color:#41B477"/>
					<stop  offset="0.2793" style="stop-color:#80CBA7"/>
					<stop  offset="0.5135" style="stop-color:#B1DECC"/>
					<stop  offset="0.7175" style="stop-color:#D5EBE7"/>
					<stop  offset="0.8833" style="stop-color:#EBF3F7"/>
					<stop  offset="0.9901" style="stop-color:#F3F6FD"/>
				</linearGradient>
				<path class="st20" d="M124.73,467.53c4.06,6.86-23.99,23.99-27.25,16.51C94.22,476.56,120.87,460.99,124.73,467.53z"/>
				<linearGradient id="SVGID_22_" gradientUnits="userSpaceOnUse" x1="105.852" y1="380.1093" x2="96.9254" y2="416.609">
					<stop  offset="0" style="stop-color:#3BB273"/>
					<stop  offset="0.0224" style="stop-color:#41B477"/>
					<stop  offset="0.2793" style="stop-color:#80CBA7"/>
					<stop  offset="0.5135" style="stop-color:#B1DECC"/>
					<stop  offset="0.7175" style="stop-color:#D5EBE7"/>
					<stop  offset="0.8833" style="stop-color:#EBF3F7"/>
					<stop  offset="0.9901" style="stop-color:#F3F6FD"/>
				</linearGradient>
				<path class="st21" d="M106.39,379.1c7.9,0.58-2.32,40.39-10.13,38.55C88.44,415.81,98.86,378.55,106.39,379.1z"/>
			</g>
			<linearGradient id="SVGID_23_" gradientUnits="userSpaceOnUse" x1="69.3595" y1="540.2606" x2="137.3728" y2="524.632">
				<stop  offset="0.1089" style="stop-color:#000000"/>
				<stop  offset="1" style="stop-color:#1D1D1B"/>
			</linearGradient>
			<linearGradient id="SVGID_24_" gradientUnits="userSpaceOnUse" x1="109.6494" y1="571.2874" x2="99.683" y2="495.6597">
				<stop  offset="0" style="stop-color:#000000"/>
				<stop  offset="0.9901" style="stop-color:#000000"/>
			</linearGradient>
			<path class="st22" d="M113.17,570.13H88.84c-10.97,0-20.24-8.11-21.71-18.98l-6.04-44.78c-0.41-3.04,1.95-5.73,5.01-5.73h69.8
				c3.06,0,5.42,2.7,5.01,5.73l-6.04,44.78C133.41,562.02,124.14,570.13,113.17,570.13z"/>
		</g>
		<g>
			<linearGradient id="SVGID_25_" gradientUnits="userSpaceOnUse" x1="89.3652" y1="223.3535" x2="404.6531" y2="223.3535">
				<stop  offset="9.900990e-03" style="stop-color:#DADADA"/>
				<stop  offset="1" style="stop-color:#DADADA"/>
			</linearGradient>
			<path class="st23" d="M393.2,331.6H100.82c-6.32,0-11.45-5.13-11.45-11.45v-193.6c0-6.32,5.13-11.45,11.45-11.45H393.2
				c6.32,0,11.45,5.13,11.45,11.45v193.6C404.65,326.48,399.53,331.6,393.2,331.6z"/>
			<path class="st24" d="M388.85,322.32H105.17c-3.78,0-6.84-3.06-6.84-6.84V131.23c0-3.78,3.06-6.84,6.84-6.84h283.68
				c3.78,0,6.84,3.06,6.84,6.84v184.25C395.68,319.26,392.62,322.32,388.85,322.32z"/>
		</g>
		<g>
			<linearGradient id="SVGID_26_" gradientUnits="userSpaceOnUse" x1="400.0973" y1="508.3588" x2="426.5065" y2="508.3588">
				<stop  offset="9.900990e-03" style="stop-color:#B2B2B2"/>
				<stop  offset="1" style="stop-color:#B2B2B2"/>
			</linearGradient>
			<path class="st25" d="M406.21,565.28c-3.72,0-6.58-3.3-6.05-6.98l14.41-106.86l11.94,1.35l-14.25,107.25
				C411.82,563.05,406.21,565.28,406.21,565.28z"/>
			<linearGradient id="SVGID_27_" gradientUnits="userSpaceOnUse" x1="497.9729" y1="502.7068" x2="524.8317" y2="502.7068">
				<stop  offset="9.900990e-03" style="stop-color:#B2B2B2"/>
				<stop  offset="1" style="stop-color:#B2B2B2"/>
			</linearGradient>
			<path class="st26" d="M512.76,557.43l-14.78-108.89l10.03-4l16.73,110.8c0.69,3.94-2.34,4.66-5.33,5.2
				S513.46,561.45,512.76,557.43z"/>
			<linearGradient id="SVGID_28_" gradientUnits="userSpaceOnUse" x1="461.5079" y1="510.1953" x2="486.4413" y2="510.1953">
				<stop  offset="9.900990e-03" style="stop-color:#B2B2B2"/>
				<stop  offset="1" style="stop-color:#B2B2B2"/>
			</linearGradient>
			<path class="st27" d="M474.15,570.48l-12.64-124.13h12.34l12.57,123.25c0.28,3.83-2.64,3.68-5.52,4.11
				C477.69,574.19,474.46,574.81,474.15,570.48z"/>
			<linearGradient id="SVGID_29_" gradientUnits="userSpaceOnUse" x1="462.9313" y1="453.3663" x2="462.9313" y2="288.3391">
				<stop  offset="0" style="stop-color:#006633"/>
				<stop  offset="0.4364" style="stop-color:#27985D"/>
				<stop  offset="0.706" style="stop-color:#3BB273"/>
				<stop  offset="1" style="stop-color:#3BB273"/>
			</linearGradient>
			<path class="st28" d="M519.94,431.89c-2.61,19.29-30.98,22.04-64.02,23.07c-1,0.5-37.46,0.28-54.44-5.44l0.59-130.62
				c0.04-11.03,4.71-29.23,20.81-29.5c27.03-0.45,77.15-4.57,96.78,1.5c4.49,16.12,7.76,33.92,0.28,80.48
				C515.67,398.02,521.2,422.63,519.94,431.89z"/>
			<linearGradient id="SVGID_30_" gradientUnits="userSpaceOnUse" x1="514.7637" y1="374.4105" x2="529.7637" y2="375.9105">
				<stop  offset="0" style="stop-color:#006633"/>
				<stop  offset="0.4364" style="stop-color:#27985D"/>
				<stop  offset="0.706" style="stop-color:#3BB273"/>
				<stop  offset="1" style="stop-color:#3BB273"/>
			</linearGradient>
			<path class="st29" d="M512.5,299c5.96,17.97,5.24,28.4-2.75,57.47c-13.31,48.45,8.54,73.32-37.63,97.75
				c27.99-1.6,45.6-5.91,47.82-22.33c1.26-9.26-4.27-33.87,0-60.52c5.51-34.29,15.79-62.31,2.12-78.87
				C518.28,287.92,510.48,292.92,512.5,299z"/>
		</g>
		<linearGradient id="SVGID_31_" gradientUnits="userSpaceOnUse" x1="402.9465" y1="368.058" x2="394.0005" y2="341.636">
			<stop  offset="0" style="stop-color:#753200"/>
			<stop  offset="0.045" style="stop-color:#793300"/>
			<stop  offset="0.3812" style="stop-color:#8E3D00"/>
			<stop  offset="0.7048" style="stop-color:#9C4200"/>
			<stop  offset="1" style="stop-color:#A04400"/>
		</linearGradient>
		<path class="st30" d="M411.4,330.38c0,0-4.01,18.73-2.95,27.47c-20.13,9.07-24.43,16.27-24.17,17.75L380,357.97l8.43-0.91
			l5.33-25.37C396.87,334.84,411.4,330.38,411.4,330.38z"/>
		<linearGradient id="SVGID_32_" gradientUnits="userSpaceOnUse" x1="355.6201" y1="439.878" x2="429.0142" y2="439.878">
			<stop  offset="0" style="stop-color:#4D4D4D"/>
			<stop  offset="0.0394" style="stop-color:#535353"/>
			<stop  offset="0.2398" style="stop-color:#6A6A6A"/>
			<stop  offset="0.4548" style="stop-color:#7A7A7A"/>
			<stop  offset="0.6931" style="stop-color:#848484"/>
			<stop  offset="1" style="stop-color:#878787"/>
		</linearGradient>
		<path class="st31" d="M429.01,405.43c-11.03-0.72-43.04,0.59-57.65,4.31c-27.5,7.01-12.8,37.96-2.13,64.78
			c3.66-8.95,9.93-48.49,13.61-53.09C390.33,412.09,419,407.13,429.01,405.43z"/>
		<linearGradient id="SVGID_33_" gradientUnits="userSpaceOnUse" x1="374.8479" y1="490.317" x2="421.1746" y2="490.317">
			<stop  offset="0" style="stop-color:#4D4D4D"/>
			<stop  offset="0.0394" style="stop-color:#535353"/>
			<stop  offset="0.2398" style="stop-color:#6A6A6A"/>
			<stop  offset="0.4548" style="stop-color:#7A7A7A"/>
			<stop  offset="0.6931" style="stop-color:#848484"/>
			<stop  offset="1" style="stop-color:#878787"/>
		</linearGradient>
		<polygon class="st32" points="399.28,446.09 390.68,459.17 374.85,483.22 403.27,534.55 421.17,523.7 		"/>
		<linearGradient id="SVGID_34_" gradientUnits="userSpaceOnUse" x1="403.2735" y1="536.8467" x2="431.067" y2="536.8467">
			<stop  offset="0" style="stop-color:#753200"/>
			<stop  offset="1" style="stop-color:#A04400"/>
		</linearGradient>
		<polygon class="st33" points="429.07,527.49 421.2,523.79 421.17,523.7 403.27,534.55 403.39,534.76 407.57,542.33 419.4,549.99 
			424.37,549.33 431.07,534.33 		"/>
		<linearGradient id="SVGID_35_" gradientUnits="userSpaceOnUse" x1="376.0109" y1="340.8203" x2="433.963" y2="332.8492">
			<stop  offset="0" style="stop-color:#006633"/>
			<stop  offset="0.0423" style="stop-color:#036A37"/>
			<stop  offset="0.4558" style="stop-color:#229157"/>
			<stop  offset="0.7862" style="stop-color:#34A96C"/>
			<stop  offset="0.9901" style="stop-color:#3BB273"/>
		</linearGradient>
		<path class="st34" d="M440.97,281.21c-18.37,2.62-26.25,4-33.58,15.33c-8.88,13.72-13.7,30.43-14.18,34.47
			c0.14,0.23,0.32,0.46,0.54,0.68c3.11,3.15,16.65,0.77,16.65,0.77s-4.5,4.26-3.83,15.42c0.05,0.92,5.33,35.69,5.33,36.4
			c4.73,0,10.43,0,16.61,0C427.63,349.24,426.58,313.75,440.97,281.21z"/>
		<linearGradient id="SVGID_36_" gradientUnits="userSpaceOnUse" x1="405.6459" y1="337.9532" x2="457.1616" y2="330.8674">
			<stop  offset="9.900990e-03" style="stop-color:#BBBFD9"/>
			<stop  offset="0.2938" style="stop-color:#CACDE2"/>
			<stop  offset="0.8404" style="stop-color:#F2F3F8"/>
			<stop  offset="1" style="stop-color:#FFFFFF"/>
		</linearGradient>
		<path class="st35" d="M462.65,279.58l-20.5,1.46c-0.4,0.06-0.79,0.11-1.18,0.17c-14.39,32.54-13.35,68.03-12.46,103.06
			c5.61,0,11.61,0,17.62,0C436.72,348.48,450.82,312.87,462.65,279.58z"/>
		<linearGradient id="SVGID_37_" gradientUnits="userSpaceOnUse" x1="413.1726" y1="340.9013" x2="495.4016" y2="329.591">
			<stop  offset="0" style="stop-color:#006633"/>
			<stop  offset="0.0423" style="stop-color:#036A37"/>
			<stop  offset="0.4558" style="stop-color:#229157"/>
			<stop  offset="0.7862" style="stop-color:#34A96C"/>
			<stop  offset="0.9901" style="stop-color:#3BB273"/>
		</linearGradient>
		<path class="st36" d="M484.32,339.67c6.81,3.03,24.57,0.13,31.63-1.06c0,0-1.61-39.31-13.3-52.07c-11.7-12.76-32.42-7.5-32.42-7.5
			l-7.58,0.54c-11.83,33.29-25.93,68.9-16.52,104.69c23.96,0,48.04,0,48.04,0S485.03,346.41,484.32,339.67z"/>
		<linearGradient id="SVGID_38_" gradientUnits="userSpaceOnUse" x1="313.7035" y1="557.1812" x2="344.3868" y2="557.1812">
			<stop  offset="0" style="stop-color:#753200"/>
			<stop  offset="1" style="stop-color:#A04400"/>
		</linearGradient>
		<path class="st37" d="M324.42,542.72c-3.96,4.26-9.79,10.5-10.72,11.36c4.81,1.9,2.39,15.8,6.37,17.96
			c4.06,2.21,14.51-7.32,19.58-6.16c0.32-3.05,2.77-9.4,4.7-13.84l0.03-0.05l-19.69-10.01
			C324.52,542.47,324.42,542.72,324.42,542.72z"/>
		<linearGradient id="SVGID_39_" gradientUnits="userSpaceOnUse" x1="365.5969" y1="445.1285" x2="397.0969" y2="464.1285">
			<stop  offset="0" style="stop-color:#4D4D4D"/>
			<stop  offset="0.0394" style="stop-color:#535353"/>
			<stop  offset="0.2398" style="stop-color:#6A6A6A"/>
			<stop  offset="0.4548" style="stop-color:#7A7A7A"/>
			<stop  offset="0.6931" style="stop-color:#848484"/>
			<stop  offset="1" style="stop-color:#878787"/>
		</linearGradient>
		<path class="st38" d="M496.39,401.41l-80.48-1.07c0,0-31.81,2.89-42.36,21.27c-1.36,2.37-9.81,20.46-9.81,20.46
			c-13.86,32.67-38.1,92.62-40.83,99.93l23.83,11.39l51.27-88.18l13.06-13.96c0,0,40.27-1.98,62.14-9.66
			C507.03,429.71,496.39,401.41,496.39,401.41z"/>
		<path class="st39" d="M406.79,400.05c0,0-3.62-0.45-9.27-0.82"/>
		<g>
			<linearGradient id="SVGID_40_" gradientUnits="userSpaceOnUse" x1="254.392" y1="346.9013" x2="388.9335" y2="346.9013">
				<stop  offset="9.900990e-03" style="stop-color:#C6C6C6"/>
				<stop  offset="0.3389" style="stop-color:#D5D5D5"/>
				<stop  offset="0.9727" style="stop-color:#FDFDFD"/>
				<stop  offset="1" style="stop-color:#FFFFFF"/>
			</linearGradient>
			<path class="st40" d="M381.88,384.47H295.4l-15.85-68.14c-0.83-3.58,1.88-7,5.56-7h80.84L381.88,384.47z"/>
			<linearGradient id="SVGID_41_" gradientUnits="userSpaceOnUse" x1="370.6036" y1="373.5316" x2="403.0031" y2="331.163">
				<stop  offset="0" style="stop-color:#DADADA"/>
				<stop  offset="0.4087" style="stop-color:#E6E6E6"/>
				<stop  offset="1" style="stop-color:#FFFFFF"/>
			</linearGradient>
			<path class="st41" d="M418.46,380.22l-0.91,4.06h-35.68l-18.68-71.39c-0.47-1.8,0.89-3.55,2.74-3.55l0,0
				c1.31,0,2.45,0.89,2.76,2.17l11.3,46.47l4.29,17.63l0.01,0.05c0.01,0.07,0.03,0.13,0.04,0.17c0.01,0.04,0.02,0.06,0.02,0.06h30.6
				C417.23,375.88,418.94,377.99,418.46,380.22z"/>
			<circle class="st24" cx="326.9" cy="348.71" r="7.26"/>
		</g>
		<path d="M284.66,559.85c0,0-9.48-2.09-13.11-0.79c-3.63,1.3-4.56,4.03-4.82,6.89c-0.27,2.86,2.79,6.97,14.57,11.36
			c11.78,4.39,31.37,9.83,36.82,10.93c3.86,0.78,10.4,1.94,15.96,1.62c3.16-0.18,5.76-2.49,6.55-5.55c0.32-1.25,0.75-2.49,1.16-3.36
			c0.96-2.03,0.62-4.36,1.2-6.04c0.58-1.68,1.96-12.97-1.2-14.64s-8.36,8.07-15.44,7.27s-7.87-9.66-7.87-9.66s3.38-3.09,1.56-5.26
			c-1.82-2.17,0.27-3.89-1.17-4.75c-1.43-0.85-6.52,2.17-6.52,2.17s-16.35,6.72-22.76,9.43
			C288.33,560.01,284.66,559.85,284.66,559.85z"/>
		<path class="st42" d="M270.99,568.29c21.04,12,45.42,12.25,45.42,12.25c6.83,1.59,13.65,6.13,22.41,0.92l0.77-0.42"/>
		<path d="M403.26,536.84c0,0,12.13,3.65,14.5,7.6c2.36,3.94,10.47-8.1,6.9-14.91c-3.57-6.81,1.3-5.7,4.65-2.93s6.06,0.76,8.4,2.75
			c2.34,2,7.15,6.4,3.64,14.68s-11.37,11.84-14.49,18.05c-3.12,6.21-2.01,18.86-6.79,23.59c-4.78,4.73-13.89,10.78-24.21,5.73
			c-10.31-5.06-1.1-18.86,1.3-22.3c2.4-3.43,2.87-15.2,3.01-20.03C400.3,544.25,399.49,538.26,403.26,536.84z"/>
		<path class="st43" d="M429.02,528.1c0,0,6.79,2.06,4.44,10.36s-10.93,14.65-11.81,23.42c-0.88,8.77-0.8,16.56-9.29,22.92
			s-12.2,5.47-12.2,5.47"/>
		<linearGradient id="SVGID_42_" gradientUnits="userSpaceOnUse" x1="477.2576" y1="346.4467" x2="487.1531" y2="346.4467">
			<stop  offset="0" style="stop-color:#3BB273"/>
			<stop  offset="0.9901" style="stop-color:#3BB273"/>
		</linearGradient>
		<path class="st44" d="M487.15,361.77l-3.58-30.65c0,0-4.55,2.25-4.94,6.59s-1.37,21.86-1.37,21.86L487.15,361.77z"/>
		<linearGradient id="SVGID_43_" gradientUnits="userSpaceOnUse" x1="451.9392" y1="312.4721" x2="448.9883" y2="358.7031">
			<stop  offset="0" style="stop-color:#753200"/>
			<stop  offset="1" style="stop-color:#A04400"/>
		</linearGradient>
		<path class="st45" d="M512.29,339.2c-0.09,8.57,1.78,27.28-1.89,35.59c-4.78,10.81-9.31,10.26-27.21,7.25
			c-17.9-3.01-46.07-12.83-55.29-12.83c-9.21,0-15,6.67-15,6.67h-28.76c-0.26-1.48-0.15-9.1,21.7-17.22
			c3.66-1.55,14.21-2.83,23.35-3.49c25.1-1.81,57.96,6.6,57.96,6.6s-2.12-15.36-2.83-22.1C491.08,342.68,506.05,340.14,512.29,339.2
			z"/>
		<g>
			<path class="st46" d="M459.74,359.59c0,0,9.14-0.75,9.14,6.91s-9.14,7.74-9.14,7.74"/>
			<g>
				<linearGradient id="SVGID_44_" gradientUnits="userSpaceOnUse" x1="434.8742" y1="366.4938" x2="462.9473" y2="366.4938">
					<stop  offset="0" style="stop-color:#FFFFFF"/>
					<stop  offset="0.1596" style="stop-color:#F2F3F8"/>
					<stop  offset="0.7062" style="stop-color:#CACDE2"/>
					<stop  offset="0.9901" style="stop-color:#BBBFD9"/>
				</linearGradient>
				<path class="st47" d="M460.81,384.27h-22.74l-3.19-32.35c-0.17-1.72,1.28-3.21,3.12-3.21h21.8c1.81,0,3.24,1.43,3.13,3.12
					L460.81,384.27z"/>
			</g>
		</g>
		<g>
			<linearGradient id="SVGID_45_" gradientUnits="userSpaceOnUse" x1="549.9031" y1="490.8608" x2="567.9265" y2="490.8608">
				<stop  offset="0.1089" style="stop-color:#000000"/>
				<stop  offset="1" style="stop-color:#1D1D1B"/>
			</linearGradient>
			<path class="st48" d="M563.24,583.18h-8.64c-2.59,0-4.69-1.41-4.69-3.16V398.54h18.02v181.48
				C567.93,581.76,565.83,583.18,563.24,583.18z"/>
			<linearGradient id="SVGID_46_" gradientUnits="userSpaceOnUse" x1="241.5679" y1="490.8608" x2="258.4031" y2="490.8608">
				<stop  offset="0.1089" style="stop-color:#000000"/>
				<stop  offset="1" style="stop-color:#1D1D1B"/>
			</linearGradient>
			<path class="st49" d="M255.61,583.18h-11.25c-1.54,0-2.79-0.9-2.79-2.01V398.54h16.84v182.62
				C258.4,582.28,257.15,583.18,255.61,583.18z"/>
			<linearGradient id="SVGID_47_" gradientUnits="userSpaceOnUse" x1="404.6531" y1="401.7313" x2="404.6531" y2="384.6791">
				<stop  offset="0.1089" style="stop-color:#1D1D1B"/>
				<stop  offset="0.5619" style="stop-color:#000000"/>
				<stop  offset="1" style="stop-color:#1D1D1B"/>
			</linearGradient>
			<path class="st50" d="M577.9,403.23H231.4v-8.47c0-5.77,4.68-10.45,10.45-10.45h325.6c5.77,0,10.45,4.68,10.45,10.45V403.23z"/>
		</g>
		<linearGradient id="SVGID_48_" gradientUnits="userSpaceOnUse" x1="471.6754" y1="278.0341" x2="471.6754" y2="278.0341">
			<stop  offset="0" style="stop-color:#1F1844"/>
			<stop  offset="0.9901" style="stop-color:#3D3C99"/>
		</linearGradient>
		<path class="st51" d="M471.68,278.03"/>
		<linearGradient id="SVGID_49_" gradientUnits="userSpaceOnUse" x1="422.7781" y1="303.0161" x2="443.4031" y2="303.0161">
			<stop  offset="0" style="stop-color:#006633"/>
			<stop  offset="0.9901" style="stop-color:#3BB273"/>
		</linearGradient>
		<path class="st52" d="M443.4,276.48l-17.38,4.73l-3.25,15.08l6.43,33.26C429.21,329.55,436.63,286.77,443.4,276.48z"/>
		<linearGradient id="SVGID_50_" gradientUnits="userSpaceOnUse" x1="484.074" y1="250.5222" x2="494.507" y2="262.1438">
			<stop  offset="0" style="stop-color:#201F4F"/>
			<stop  offset="0.9629" style="stop-color:#000000"/>
		</linearGradient>
		<circle class="st53" cx="488.13" cy="255.05" r="10.65"/>
		<linearGradient id="SVGID_51_" gradientUnits="userSpaceOnUse" x1="467.23" y1="254.382" x2="478.8478" y2="275.0189">
			<stop  offset="0" style="stop-color:#29295C"/>
			<stop  offset="0.9629" style="stop-color:#000000"/>
		</linearGradient>
		<circle class="st54" cx="472.82" cy="264.31" r="12.32"/>
		<circle cx="401.52" cy="207.85" r="12.32"/>
		<circle cx="401.52" cy="218.19" r="12.32"/>
		<circle cx="403.38" cy="232.5" r="12.32"/>
		<circle cx="409.13" cy="244.32" r="12.32"/>
		<linearGradient id="SVGID_52_" gradientUnits="userSpaceOnUse" x1="383.7831" y1="218.1866" x2="497.3131" y2="218.1866">
			<stop  offset="0" style="stop-color:#000000"/>
			<stop  offset="1" style="stop-color:#000000"/>
		</linearGradient>
		<path class="st55" d="M505.57,218.19c0,13.71-4.86,26.28-12.95,36.1c-10.41,12.62-26.17,20.67-43.81,20.67
			c-31.36,0-56.77-25.41-56.77-56.76c0-8.11,1.7-15.83,4.77-22.81v-0.01c8.79-19.99,28.76-33.94,52-33.94
			C480.15,161.43,505.57,186.84,505.57,218.19z"/>
		<linearGradient id="SVGID_53_" gradientUnits="userSpaceOnUse" x1="393" y1="272.7854" x2="463.0128" y2="240.3777">
			<stop  offset="0" style="stop-color:#753200"/>
			<stop  offset="1" style="stop-color:#A04400"/>
		</linearGradient>
		<path class="st56" d="M466.44,281.24c0,0-0.15-5.97-2.56-24.11c-0.04-0.28-0.06-0.54-0.1-0.8c-0.24-1.86-0.5-4.99-0.4-5.18
			c0.06-0.11,0.13-0.22,0.18-0.33c5.24-9.35,4.35-15.48,0.72-17.55c-0.46-0.27-0.98-0.46-1.53-0.59l0,0c0,0,1.44-11.89-3.41-21.47
			c-6.42-12.69-24.71-12.83-35.87-9.58c-11.19,3.26-20.93,16.69-17.1,29.06c1.52,4.92,3.82,9.4,4.38,13.89
			c0.58,4.5-1.27,11.96,2.18,19.26c4.94,10.47,16.26,13.27,23.19,13.24c0.98-0.01,1.87-0.07,2.64-0.17l0.31,1.88l0.66,4.55
			l-0.41,20.79c-0.05,2.61,3.15,3.9,4.92,1.99C452.28,297.47,466.98,284.62,466.44,281.24z"/>
		<linearGradient id="SVGID_54_" gradientUnits="userSpaceOnUse" x1="464.1465" y1="255.9341" x2="439.3929" y2="280.2292">
			<stop  offset="0" style="stop-color:#A04400"/>
			<stop  offset="1" style="stop-color:#753200"/>
		</linearGradient>
		<path class="st57" d="M463.88,257.13c-6.05,14.32-16.45,20.28-24.55,23.19l-0.25-1.53l-0.31-1.88
			c7.59-4.15,16.06-11.87,24.79-26.09c-0.06,0.11-0.12,0.22-0.18,0.33c-0.1,0.19,0.17,3.32,0.4,5.18
			C463.81,256.59,463.84,256.86,463.88,257.13z"/>
		<linearGradient id="SVGID_55_" gradientUnits="userSpaceOnUse" x1="464.0906" y1="238.6475" x2="460.8936" y2="241.7853">
			<stop  offset="0" style="stop-color:#753200"/>
			<stop  offset="1" style="stop-color:#A04400"/>
		</linearGradient>
		<path class="st58" d="M459.35,238.7c0,0,1.95-3.67,4.01-1.38c2.06,2.29,0,6.99,0,6.99L459.35,238.7z"/>
		<path d="M505.57,218.19c0,13.71-4.86,26.28-12.95,36.1c-19.6,0-19.93-31.54-38.57-18.16c-15.92,11.42-57.23-21.17-57.23-40.75
			v-0.01c8.79-19.99,28.76-33.94,52-33.94C480.15,161.43,505.57,186.84,505.57,218.19z"/>
		<g>
			<linearGradient id="SVGID_56_" gradientUnits="userSpaceOnUse" x1="382.7781" y1="250.4249" x2="452.8295" y2="217.9994">
				<stop  offset="3.292829e-03" style="stop-color:#A04400;stop-opacity:0"/>
				<stop  offset="0.4085" style="stop-color:#8F3D00;stop-opacity:0.3158"/>
				<stop  offset="0.9015" style="stop-color:#753200;stop-opacity:0.7"/>
			</linearGradient>
			<path class="st59" d="M446.33,242.72c5.71-0.71,10.29-4.26,12.48-9.23c-1.41,0.53-3.12,1.18-4.8,2.39
				c-10.8,7.75-33.12-4.52-46.47-19.49c-1.19,2.79-1.88,5.76-1.86,8.78C415.38,236.57,430.85,244.35,446.33,242.72z"/>
		</g>
		<circle cx="411.61" cy="187.53" r="12.32"/>
		<circle cx="404.57" cy="195.42" r="12.2"/>
		<circle cx="419.02" cy="178.82" r="12.32"/>
		<circle cx="431.34" cy="173.75" r="12.32"/>
		<circle cx="447.02" cy="170.54" r="12.32"/>
		<circle cx="462.62" cy="170.54" r="12.32"/>
		<circle cx="474.14" cy="176.96" r="12.32"/>
		<circle cx="485.14" cy="182.86" r="12.32"/>
		<circle cx="494.18" cy="196.85" r="12.32"/>
		<circle cx="498.78" cy="209.55" r="12.32"/>
		<circle cx="500.67" cy="226.14" r="12.32"/>
		<circle cx="493.14" cy="241.91" r="12.2"/>
		<linearGradient id="SVGID_57_" gradientUnits="userSpaceOnUse" x1="445.8488" y1="304.7846" x2="486.4412" y2="304.7846">
			<stop  offset="0" style="stop-color:#3BB273"/>
			<stop  offset="0.9901" style="stop-color:#006633"/>
		</linearGradient>
		<path class="st60" d="M477.49,276.13l-9.71,1.5c0,0-18.72,25.39-21.89,53.63c-0.1,0.85,0,1.6,0.02,2.19
			c9.87-27.9,40.53-44.4,40.53-44.4L477.49,276.13z"/>
		<polygon class="st61" points="477.26,275.79 465.88,274.01 466.15,279.99 477.49,276.13 		"/>
		<path class="st62" d="M420.15,405.24l-28.18,11.09c-7.65,3.01-13.75,9.01-16.9,16.61L326.9,543.11"/>
	</g>
</g>
<g id="_x32_0">
</g>
<g id="_x31_9">
</g>
<g id="_x31_8">
</g>
<g id="_x31_7">
</g>
<g id="_x31_6">
</g>
<g id="_x31_5">
</g>
<g id="_x31_4">
</g>
<g id="_x31_3">
</g>
<g id="_x31_2">
</g>
<g id="_x31_1">
</g>
<g id="_x31_0">
</g>
<g id="_x39_">
</g>
<g id="_x38_">
</g>
<g id="_x37_">
</g>
<g id="_x36_">
</g>
<g id="_x35_">
</g>
<g id="_x34_">
</g>
<g id="_x33_">
</g>
<g id="_x32__1_">
</g>
<g id="_x31_">
</g>
</svg>
